%TF.GenerationSoftware,KiCad,Pcbnew,9.0.6*%
%TF.CreationDate,2025-11-24T17:06:30-07:00*%
%TF.ProjectId,CentralAvionicsHub,43656e74-7261-46c4-9176-696f6e696373,Rev 0*%
%TF.SameCoordinates,Original*%
%TF.FileFunction,Legend,Top*%
%TF.FilePolarity,Positive*%
%FSLAX46Y46*%
G04 Gerber Fmt 4.6, Leading zero omitted, Abs format (unit mm)*
G04 Created by KiCad (PCBNEW 9.0.6) date 2025-11-24 17:06:30*
%MOMM*%
%LPD*%
G01*
G04 APERTURE LIST*
%ADD10C,0.100000*%
%ADD11C,0.150000*%
%ADD12C,0.120000*%
%ADD13C,0.127000*%
G04 APERTURE END LIST*
D10*
X98030312Y-146122236D02*
X97982693Y-146169856D01*
X97982693Y-146169856D02*
X97839836Y-146217475D01*
X97839836Y-146217475D02*
X97744598Y-146217475D01*
X97744598Y-146217475D02*
X97601741Y-146169856D01*
X97601741Y-146169856D02*
X97506503Y-146074617D01*
X97506503Y-146074617D02*
X97458884Y-145979379D01*
X97458884Y-145979379D02*
X97411265Y-145788903D01*
X97411265Y-145788903D02*
X97411265Y-145646046D01*
X97411265Y-145646046D02*
X97458884Y-145455570D01*
X97458884Y-145455570D02*
X97506503Y-145360332D01*
X97506503Y-145360332D02*
X97601741Y-145265094D01*
X97601741Y-145265094D02*
X97744598Y-145217475D01*
X97744598Y-145217475D02*
X97839836Y-145217475D01*
X97839836Y-145217475D02*
X97982693Y-145265094D01*
X97982693Y-145265094D02*
X98030312Y-145312713D01*
X98839836Y-146169856D02*
X98744598Y-146217475D01*
X98744598Y-146217475D02*
X98554122Y-146217475D01*
X98554122Y-146217475D02*
X98458884Y-146169856D01*
X98458884Y-146169856D02*
X98411265Y-146074617D01*
X98411265Y-146074617D02*
X98411265Y-145693665D01*
X98411265Y-145693665D02*
X98458884Y-145598427D01*
X98458884Y-145598427D02*
X98554122Y-145550808D01*
X98554122Y-145550808D02*
X98744598Y-145550808D01*
X98744598Y-145550808D02*
X98839836Y-145598427D01*
X98839836Y-145598427D02*
X98887455Y-145693665D01*
X98887455Y-145693665D02*
X98887455Y-145788903D01*
X98887455Y-145788903D02*
X98411265Y-145884141D01*
X99316027Y-145550808D02*
X99316027Y-146217475D01*
X99316027Y-145646046D02*
X99363646Y-145598427D01*
X99363646Y-145598427D02*
X99458884Y-145550808D01*
X99458884Y-145550808D02*
X99601741Y-145550808D01*
X99601741Y-145550808D02*
X99696979Y-145598427D01*
X99696979Y-145598427D02*
X99744598Y-145693665D01*
X99744598Y-145693665D02*
X99744598Y-146217475D01*
X100077932Y-145550808D02*
X100458884Y-145550808D01*
X100220789Y-145217475D02*
X100220789Y-146074617D01*
X100220789Y-146074617D02*
X100268408Y-146169856D01*
X100268408Y-146169856D02*
X100363646Y-146217475D01*
X100363646Y-146217475D02*
X100458884Y-146217475D01*
X100792218Y-146217475D02*
X100792218Y-145550808D01*
X100792218Y-145741284D02*
X100839837Y-145646046D01*
X100839837Y-145646046D02*
X100887456Y-145598427D01*
X100887456Y-145598427D02*
X100982694Y-145550808D01*
X100982694Y-145550808D02*
X101077932Y-145550808D01*
X101839837Y-146217475D02*
X101839837Y-145693665D01*
X101839837Y-145693665D02*
X101792218Y-145598427D01*
X101792218Y-145598427D02*
X101696980Y-145550808D01*
X101696980Y-145550808D02*
X101506504Y-145550808D01*
X101506504Y-145550808D02*
X101411266Y-145598427D01*
X101839837Y-146169856D02*
X101744599Y-146217475D01*
X101744599Y-146217475D02*
X101506504Y-146217475D01*
X101506504Y-146217475D02*
X101411266Y-146169856D01*
X101411266Y-146169856D02*
X101363647Y-146074617D01*
X101363647Y-146074617D02*
X101363647Y-145979379D01*
X101363647Y-145979379D02*
X101411266Y-145884141D01*
X101411266Y-145884141D02*
X101506504Y-145836522D01*
X101506504Y-145836522D02*
X101744599Y-145836522D01*
X101744599Y-145836522D02*
X101839837Y-145788903D01*
X102458885Y-146217475D02*
X102363647Y-146169856D01*
X102363647Y-146169856D02*
X102316028Y-146074617D01*
X102316028Y-146074617D02*
X102316028Y-145217475D01*
X103554124Y-145931760D02*
X104030314Y-145931760D01*
X103458886Y-146217475D02*
X103792219Y-145217475D01*
X103792219Y-145217475D02*
X104125552Y-146217475D01*
X104363648Y-145550808D02*
X104601743Y-146217475D01*
X104601743Y-146217475D02*
X104839838Y-145550808D01*
X105220791Y-146217475D02*
X105220791Y-145550808D01*
X105220791Y-145217475D02*
X105173172Y-145265094D01*
X105173172Y-145265094D02*
X105220791Y-145312713D01*
X105220791Y-145312713D02*
X105268410Y-145265094D01*
X105268410Y-145265094D02*
X105220791Y-145217475D01*
X105220791Y-145217475D02*
X105220791Y-145312713D01*
X105839838Y-146217475D02*
X105744600Y-146169856D01*
X105744600Y-146169856D02*
X105696981Y-146122236D01*
X105696981Y-146122236D02*
X105649362Y-146026998D01*
X105649362Y-146026998D02*
X105649362Y-145741284D01*
X105649362Y-145741284D02*
X105696981Y-145646046D01*
X105696981Y-145646046D02*
X105744600Y-145598427D01*
X105744600Y-145598427D02*
X105839838Y-145550808D01*
X105839838Y-145550808D02*
X105982695Y-145550808D01*
X105982695Y-145550808D02*
X106077933Y-145598427D01*
X106077933Y-145598427D02*
X106125552Y-145646046D01*
X106125552Y-145646046D02*
X106173171Y-145741284D01*
X106173171Y-145741284D02*
X106173171Y-146026998D01*
X106173171Y-146026998D02*
X106125552Y-146122236D01*
X106125552Y-146122236D02*
X106077933Y-146169856D01*
X106077933Y-146169856D02*
X105982695Y-146217475D01*
X105982695Y-146217475D02*
X105839838Y-146217475D01*
X106601743Y-145550808D02*
X106601743Y-146217475D01*
X106601743Y-145646046D02*
X106649362Y-145598427D01*
X106649362Y-145598427D02*
X106744600Y-145550808D01*
X106744600Y-145550808D02*
X106887457Y-145550808D01*
X106887457Y-145550808D02*
X106982695Y-145598427D01*
X106982695Y-145598427D02*
X107030314Y-145693665D01*
X107030314Y-145693665D02*
X107030314Y-146217475D01*
X107506505Y-146217475D02*
X107506505Y-145550808D01*
X107506505Y-145217475D02*
X107458886Y-145265094D01*
X107458886Y-145265094D02*
X107506505Y-145312713D01*
X107506505Y-145312713D02*
X107554124Y-145265094D01*
X107554124Y-145265094D02*
X107506505Y-145217475D01*
X107506505Y-145217475D02*
X107506505Y-145312713D01*
X108411266Y-146169856D02*
X108316028Y-146217475D01*
X108316028Y-146217475D02*
X108125552Y-146217475D01*
X108125552Y-146217475D02*
X108030314Y-146169856D01*
X108030314Y-146169856D02*
X107982695Y-146122236D01*
X107982695Y-146122236D02*
X107935076Y-146026998D01*
X107935076Y-146026998D02*
X107935076Y-145741284D01*
X107935076Y-145741284D02*
X107982695Y-145646046D01*
X107982695Y-145646046D02*
X108030314Y-145598427D01*
X108030314Y-145598427D02*
X108125552Y-145550808D01*
X108125552Y-145550808D02*
X108316028Y-145550808D01*
X108316028Y-145550808D02*
X108411266Y-145598427D01*
X108792219Y-146169856D02*
X108887457Y-146217475D01*
X108887457Y-146217475D02*
X109077933Y-146217475D01*
X109077933Y-146217475D02*
X109173171Y-146169856D01*
X109173171Y-146169856D02*
X109220790Y-146074617D01*
X109220790Y-146074617D02*
X109220790Y-146026998D01*
X109220790Y-146026998D02*
X109173171Y-145931760D01*
X109173171Y-145931760D02*
X109077933Y-145884141D01*
X109077933Y-145884141D02*
X108935076Y-145884141D01*
X108935076Y-145884141D02*
X108839838Y-145836522D01*
X108839838Y-145836522D02*
X108792219Y-145741284D01*
X108792219Y-145741284D02*
X108792219Y-145693665D01*
X108792219Y-145693665D02*
X108839838Y-145598427D01*
X108839838Y-145598427D02*
X108935076Y-145550808D01*
X108935076Y-145550808D02*
X109077933Y-145550808D01*
X109077933Y-145550808D02*
X109173171Y-145598427D01*
X110411267Y-146217475D02*
X110411267Y-145217475D01*
X110411267Y-145693665D02*
X110982695Y-145693665D01*
X110982695Y-146217475D02*
X110982695Y-145217475D01*
X111887457Y-145550808D02*
X111887457Y-146217475D01*
X111458886Y-145550808D02*
X111458886Y-146074617D01*
X111458886Y-146074617D02*
X111506505Y-146169856D01*
X111506505Y-146169856D02*
X111601743Y-146217475D01*
X111601743Y-146217475D02*
X111744600Y-146217475D01*
X111744600Y-146217475D02*
X111839838Y-146169856D01*
X111839838Y-146169856D02*
X111887457Y-146122236D01*
X112363648Y-146217475D02*
X112363648Y-145217475D01*
X112363648Y-145598427D02*
X112458886Y-145550808D01*
X112458886Y-145550808D02*
X112649362Y-145550808D01*
X112649362Y-145550808D02*
X112744600Y-145598427D01*
X112744600Y-145598427D02*
X112792219Y-145646046D01*
X112792219Y-145646046D02*
X112839838Y-145741284D01*
X112839838Y-145741284D02*
X112839838Y-146026998D01*
X112839838Y-146026998D02*
X112792219Y-146122236D01*
X112792219Y-146122236D02*
X112744600Y-146169856D01*
X112744600Y-146169856D02*
X112649362Y-146217475D01*
X112649362Y-146217475D02*
X112458886Y-146217475D01*
X112458886Y-146217475D02*
X112363648Y-146169856D01*
X98030312Y-147827419D02*
X97696979Y-147351228D01*
X97458884Y-147827419D02*
X97458884Y-146827419D01*
X97458884Y-146827419D02*
X97839836Y-146827419D01*
X97839836Y-146827419D02*
X97935074Y-146875038D01*
X97935074Y-146875038D02*
X97982693Y-146922657D01*
X97982693Y-146922657D02*
X98030312Y-147017895D01*
X98030312Y-147017895D02*
X98030312Y-147160752D01*
X98030312Y-147160752D02*
X97982693Y-147255990D01*
X97982693Y-147255990D02*
X97935074Y-147303609D01*
X97935074Y-147303609D02*
X97839836Y-147351228D01*
X97839836Y-147351228D02*
X97458884Y-147351228D01*
X98839836Y-147779800D02*
X98744598Y-147827419D01*
X98744598Y-147827419D02*
X98554122Y-147827419D01*
X98554122Y-147827419D02*
X98458884Y-147779800D01*
X98458884Y-147779800D02*
X98411265Y-147684561D01*
X98411265Y-147684561D02*
X98411265Y-147303609D01*
X98411265Y-147303609D02*
X98458884Y-147208371D01*
X98458884Y-147208371D02*
X98554122Y-147160752D01*
X98554122Y-147160752D02*
X98744598Y-147160752D01*
X98744598Y-147160752D02*
X98839836Y-147208371D01*
X98839836Y-147208371D02*
X98887455Y-147303609D01*
X98887455Y-147303609D02*
X98887455Y-147398847D01*
X98887455Y-147398847D02*
X98411265Y-147494085D01*
X99220789Y-147160752D02*
X99458884Y-147827419D01*
X99458884Y-147827419D02*
X99696979Y-147160752D01*
X101363646Y-147827419D02*
X100792218Y-147827419D01*
X101077932Y-147827419D02*
X101077932Y-146827419D01*
X101077932Y-146827419D02*
X100982694Y-146970276D01*
X100982694Y-146970276D02*
X100887456Y-147065514D01*
X100887456Y-147065514D02*
X100792218Y-147113133D01*
X101792218Y-147732180D02*
X101839837Y-147779800D01*
X101839837Y-147779800D02*
X101792218Y-147827419D01*
X101792218Y-147827419D02*
X101744599Y-147779800D01*
X101744599Y-147779800D02*
X101792218Y-147732180D01*
X101792218Y-147732180D02*
X101792218Y-147827419D01*
X101792218Y-147208371D02*
X101839837Y-147255990D01*
X101839837Y-147255990D02*
X101792218Y-147303609D01*
X101792218Y-147303609D02*
X101744599Y-147255990D01*
X101744599Y-147255990D02*
X101792218Y-147208371D01*
X101792218Y-147208371D02*
X101792218Y-147303609D01*
X102982694Y-146922657D02*
X103030313Y-146875038D01*
X103030313Y-146875038D02*
X103125551Y-146827419D01*
X103125551Y-146827419D02*
X103363646Y-146827419D01*
X103363646Y-146827419D02*
X103458884Y-146875038D01*
X103458884Y-146875038D02*
X103506503Y-146922657D01*
X103506503Y-146922657D02*
X103554122Y-147017895D01*
X103554122Y-147017895D02*
X103554122Y-147113133D01*
X103554122Y-147113133D02*
X103506503Y-147255990D01*
X103506503Y-147255990D02*
X102935075Y-147827419D01*
X102935075Y-147827419D02*
X103554122Y-147827419D01*
X104411265Y-147160752D02*
X104411265Y-147827419D01*
X104173170Y-146779800D02*
X103935075Y-147494085D01*
X103935075Y-147494085D02*
X104554122Y-147494085D01*
X105696980Y-147827419D02*
X105696980Y-146827419D01*
X105696980Y-146827419D02*
X106268408Y-147827419D01*
X106268408Y-147827419D02*
X106268408Y-146827419D01*
X106887456Y-147827419D02*
X106792218Y-147779800D01*
X106792218Y-147779800D02*
X106744599Y-147732180D01*
X106744599Y-147732180D02*
X106696980Y-147636942D01*
X106696980Y-147636942D02*
X106696980Y-147351228D01*
X106696980Y-147351228D02*
X106744599Y-147255990D01*
X106744599Y-147255990D02*
X106792218Y-147208371D01*
X106792218Y-147208371D02*
X106887456Y-147160752D01*
X106887456Y-147160752D02*
X107030313Y-147160752D01*
X107030313Y-147160752D02*
X107125551Y-147208371D01*
X107125551Y-147208371D02*
X107173170Y-147255990D01*
X107173170Y-147255990D02*
X107220789Y-147351228D01*
X107220789Y-147351228D02*
X107220789Y-147636942D01*
X107220789Y-147636942D02*
X107173170Y-147732180D01*
X107173170Y-147732180D02*
X107125551Y-147779800D01*
X107125551Y-147779800D02*
X107030313Y-147827419D01*
X107030313Y-147827419D02*
X106887456Y-147827419D01*
X107554123Y-147160752D02*
X107792218Y-147827419D01*
X107792218Y-147827419D02*
X108030313Y-147160752D01*
X108792218Y-147779800D02*
X108696980Y-147827419D01*
X108696980Y-147827419D02*
X108506504Y-147827419D01*
X108506504Y-147827419D02*
X108411266Y-147779800D01*
X108411266Y-147779800D02*
X108363647Y-147684561D01*
X108363647Y-147684561D02*
X108363647Y-147303609D01*
X108363647Y-147303609D02*
X108411266Y-147208371D01*
X108411266Y-147208371D02*
X108506504Y-147160752D01*
X108506504Y-147160752D02*
X108696980Y-147160752D01*
X108696980Y-147160752D02*
X108792218Y-147208371D01*
X108792218Y-147208371D02*
X108839837Y-147303609D01*
X108839837Y-147303609D02*
X108839837Y-147398847D01*
X108839837Y-147398847D02*
X108363647Y-147494085D01*
X109268409Y-147827419D02*
X109268409Y-147160752D01*
X109268409Y-147255990D02*
X109316028Y-147208371D01*
X109316028Y-147208371D02*
X109411266Y-147160752D01*
X109411266Y-147160752D02*
X109554123Y-147160752D01*
X109554123Y-147160752D02*
X109649361Y-147208371D01*
X109649361Y-147208371D02*
X109696980Y-147303609D01*
X109696980Y-147303609D02*
X109696980Y-147827419D01*
X109696980Y-147303609D02*
X109744599Y-147208371D01*
X109744599Y-147208371D02*
X109839837Y-147160752D01*
X109839837Y-147160752D02*
X109982694Y-147160752D01*
X109982694Y-147160752D02*
X110077933Y-147208371D01*
X110077933Y-147208371D02*
X110125552Y-147303609D01*
X110125552Y-147303609D02*
X110125552Y-147827419D01*
X110601742Y-147827419D02*
X110601742Y-146827419D01*
X110601742Y-147208371D02*
X110696980Y-147160752D01*
X110696980Y-147160752D02*
X110887456Y-147160752D01*
X110887456Y-147160752D02*
X110982694Y-147208371D01*
X110982694Y-147208371D02*
X111030313Y-147255990D01*
X111030313Y-147255990D02*
X111077932Y-147351228D01*
X111077932Y-147351228D02*
X111077932Y-147636942D01*
X111077932Y-147636942D02*
X111030313Y-147732180D01*
X111030313Y-147732180D02*
X110982694Y-147779800D01*
X110982694Y-147779800D02*
X110887456Y-147827419D01*
X110887456Y-147827419D02*
X110696980Y-147827419D01*
X110696980Y-147827419D02*
X110601742Y-147779800D01*
X111887456Y-147779800D02*
X111792218Y-147827419D01*
X111792218Y-147827419D02*
X111601742Y-147827419D01*
X111601742Y-147827419D02*
X111506504Y-147779800D01*
X111506504Y-147779800D02*
X111458885Y-147684561D01*
X111458885Y-147684561D02*
X111458885Y-147303609D01*
X111458885Y-147303609D02*
X111506504Y-147208371D01*
X111506504Y-147208371D02*
X111601742Y-147160752D01*
X111601742Y-147160752D02*
X111792218Y-147160752D01*
X111792218Y-147160752D02*
X111887456Y-147208371D01*
X111887456Y-147208371D02*
X111935075Y-147303609D01*
X111935075Y-147303609D02*
X111935075Y-147398847D01*
X111935075Y-147398847D02*
X111458885Y-147494085D01*
X112363647Y-147827419D02*
X112363647Y-147160752D01*
X112363647Y-147351228D02*
X112411266Y-147255990D01*
X112411266Y-147255990D02*
X112458885Y-147208371D01*
X112458885Y-147208371D02*
X112554123Y-147160752D01*
X112554123Y-147160752D02*
X112649361Y-147160752D01*
X113696981Y-146922657D02*
X113744600Y-146875038D01*
X113744600Y-146875038D02*
X113839838Y-146827419D01*
X113839838Y-146827419D02*
X114077933Y-146827419D01*
X114077933Y-146827419D02*
X114173171Y-146875038D01*
X114173171Y-146875038D02*
X114220790Y-146922657D01*
X114220790Y-146922657D02*
X114268409Y-147017895D01*
X114268409Y-147017895D02*
X114268409Y-147113133D01*
X114268409Y-147113133D02*
X114220790Y-147255990D01*
X114220790Y-147255990D02*
X113649362Y-147827419D01*
X113649362Y-147827419D02*
X114268409Y-147827419D01*
X114887457Y-146827419D02*
X114982695Y-146827419D01*
X114982695Y-146827419D02*
X115077933Y-146875038D01*
X115077933Y-146875038D02*
X115125552Y-146922657D01*
X115125552Y-146922657D02*
X115173171Y-147017895D01*
X115173171Y-147017895D02*
X115220790Y-147208371D01*
X115220790Y-147208371D02*
X115220790Y-147446466D01*
X115220790Y-147446466D02*
X115173171Y-147636942D01*
X115173171Y-147636942D02*
X115125552Y-147732180D01*
X115125552Y-147732180D02*
X115077933Y-147779800D01*
X115077933Y-147779800D02*
X114982695Y-147827419D01*
X114982695Y-147827419D02*
X114887457Y-147827419D01*
X114887457Y-147827419D02*
X114792219Y-147779800D01*
X114792219Y-147779800D02*
X114744600Y-147732180D01*
X114744600Y-147732180D02*
X114696981Y-147636942D01*
X114696981Y-147636942D02*
X114649362Y-147446466D01*
X114649362Y-147446466D02*
X114649362Y-147208371D01*
X114649362Y-147208371D02*
X114696981Y-147017895D01*
X114696981Y-147017895D02*
X114744600Y-146922657D01*
X114744600Y-146922657D02*
X114792219Y-146875038D01*
X114792219Y-146875038D02*
X114887457Y-146827419D01*
X115601743Y-146922657D02*
X115649362Y-146875038D01*
X115649362Y-146875038D02*
X115744600Y-146827419D01*
X115744600Y-146827419D02*
X115982695Y-146827419D01*
X115982695Y-146827419D02*
X116077933Y-146875038D01*
X116077933Y-146875038D02*
X116125552Y-146922657D01*
X116125552Y-146922657D02*
X116173171Y-147017895D01*
X116173171Y-147017895D02*
X116173171Y-147113133D01*
X116173171Y-147113133D02*
X116125552Y-147255990D01*
X116125552Y-147255990D02*
X115554124Y-147827419D01*
X115554124Y-147827419D02*
X116173171Y-147827419D01*
X117077933Y-146827419D02*
X116601743Y-146827419D01*
X116601743Y-146827419D02*
X116554124Y-147303609D01*
X116554124Y-147303609D02*
X116601743Y-147255990D01*
X116601743Y-147255990D02*
X116696981Y-147208371D01*
X116696981Y-147208371D02*
X116935076Y-147208371D01*
X116935076Y-147208371D02*
X117030314Y-147255990D01*
X117030314Y-147255990D02*
X117077933Y-147303609D01*
X117077933Y-147303609D02*
X117125552Y-147398847D01*
X117125552Y-147398847D02*
X117125552Y-147636942D01*
X117125552Y-147636942D02*
X117077933Y-147732180D01*
X117077933Y-147732180D02*
X117030314Y-147779800D01*
X117030314Y-147779800D02*
X116935076Y-147827419D01*
X116935076Y-147827419D02*
X116696981Y-147827419D01*
X116696981Y-147827419D02*
X116601743Y-147779800D01*
X116601743Y-147779800D02*
X116554124Y-147732180D01*
D11*
X139503666Y-68161819D02*
X139503666Y-68876104D01*
X139503666Y-68876104D02*
X139456047Y-69018961D01*
X139456047Y-69018961D02*
X139360809Y-69114200D01*
X139360809Y-69114200D02*
X139217952Y-69161819D01*
X139217952Y-69161819D02*
X139122714Y-69161819D01*
X140122714Y-68590390D02*
X140027476Y-68542771D01*
X140027476Y-68542771D02*
X139979857Y-68495152D01*
X139979857Y-68495152D02*
X139932238Y-68399914D01*
X139932238Y-68399914D02*
X139932238Y-68352295D01*
X139932238Y-68352295D02*
X139979857Y-68257057D01*
X139979857Y-68257057D02*
X140027476Y-68209438D01*
X140027476Y-68209438D02*
X140122714Y-68161819D01*
X140122714Y-68161819D02*
X140313190Y-68161819D01*
X140313190Y-68161819D02*
X140408428Y-68209438D01*
X140408428Y-68209438D02*
X140456047Y-68257057D01*
X140456047Y-68257057D02*
X140503666Y-68352295D01*
X140503666Y-68352295D02*
X140503666Y-68399914D01*
X140503666Y-68399914D02*
X140456047Y-68495152D01*
X140456047Y-68495152D02*
X140408428Y-68542771D01*
X140408428Y-68542771D02*
X140313190Y-68590390D01*
X140313190Y-68590390D02*
X140122714Y-68590390D01*
X140122714Y-68590390D02*
X140027476Y-68638009D01*
X140027476Y-68638009D02*
X139979857Y-68685628D01*
X139979857Y-68685628D02*
X139932238Y-68780866D01*
X139932238Y-68780866D02*
X139932238Y-68971342D01*
X139932238Y-68971342D02*
X139979857Y-69066580D01*
X139979857Y-69066580D02*
X140027476Y-69114200D01*
X140027476Y-69114200D02*
X140122714Y-69161819D01*
X140122714Y-69161819D02*
X140313190Y-69161819D01*
X140313190Y-69161819D02*
X140408428Y-69114200D01*
X140408428Y-69114200D02*
X140456047Y-69066580D01*
X140456047Y-69066580D02*
X140503666Y-68971342D01*
X140503666Y-68971342D02*
X140503666Y-68780866D01*
X140503666Y-68780866D02*
X140456047Y-68685628D01*
X140456047Y-68685628D02*
X140408428Y-68638009D01*
X140408428Y-68638009D02*
X140313190Y-68590390D01*
X158379381Y-76781819D02*
X158379381Y-75781819D01*
X158379381Y-75781819D02*
X158760333Y-75781819D01*
X158760333Y-75781819D02*
X158855571Y-75829438D01*
X158855571Y-75829438D02*
X158903190Y-75877057D01*
X158903190Y-75877057D02*
X158950809Y-75972295D01*
X158950809Y-75972295D02*
X158950809Y-76115152D01*
X158950809Y-76115152D02*
X158903190Y-76210390D01*
X158903190Y-76210390D02*
X158855571Y-76258009D01*
X158855571Y-76258009D02*
X158760333Y-76305628D01*
X158760333Y-76305628D02*
X158379381Y-76305628D01*
X159522238Y-76781819D02*
X159427000Y-76734200D01*
X159427000Y-76734200D02*
X159379381Y-76686580D01*
X159379381Y-76686580D02*
X159331762Y-76591342D01*
X159331762Y-76591342D02*
X159331762Y-76305628D01*
X159331762Y-76305628D02*
X159379381Y-76210390D01*
X159379381Y-76210390D02*
X159427000Y-76162771D01*
X159427000Y-76162771D02*
X159522238Y-76115152D01*
X159522238Y-76115152D02*
X159665095Y-76115152D01*
X159665095Y-76115152D02*
X159760333Y-76162771D01*
X159760333Y-76162771D02*
X159807952Y-76210390D01*
X159807952Y-76210390D02*
X159855571Y-76305628D01*
X159855571Y-76305628D02*
X159855571Y-76591342D01*
X159855571Y-76591342D02*
X159807952Y-76686580D01*
X159807952Y-76686580D02*
X159760333Y-76734200D01*
X159760333Y-76734200D02*
X159665095Y-76781819D01*
X159665095Y-76781819D02*
X159522238Y-76781819D01*
X160188905Y-76115152D02*
X160379381Y-76781819D01*
X160379381Y-76781819D02*
X160569857Y-76305628D01*
X160569857Y-76305628D02*
X160760333Y-76781819D01*
X160760333Y-76781819D02*
X160950809Y-76115152D01*
X161712714Y-76734200D02*
X161617476Y-76781819D01*
X161617476Y-76781819D02*
X161427000Y-76781819D01*
X161427000Y-76781819D02*
X161331762Y-76734200D01*
X161331762Y-76734200D02*
X161284143Y-76638961D01*
X161284143Y-76638961D02*
X161284143Y-76258009D01*
X161284143Y-76258009D02*
X161331762Y-76162771D01*
X161331762Y-76162771D02*
X161427000Y-76115152D01*
X161427000Y-76115152D02*
X161617476Y-76115152D01*
X161617476Y-76115152D02*
X161712714Y-76162771D01*
X161712714Y-76162771D02*
X161760333Y-76258009D01*
X161760333Y-76258009D02*
X161760333Y-76353247D01*
X161760333Y-76353247D02*
X161284143Y-76448485D01*
X162188905Y-76781819D02*
X162188905Y-76115152D01*
X162188905Y-76305628D02*
X162236524Y-76210390D01*
X162236524Y-76210390D02*
X162284143Y-76162771D01*
X162284143Y-76162771D02*
X162379381Y-76115152D01*
X162379381Y-76115152D02*
X162474619Y-76115152D01*
X162569858Y-76877057D02*
X163331762Y-76877057D01*
X163569858Y-76781819D02*
X163569858Y-75781819D01*
X164046048Y-76115152D02*
X164046048Y-76781819D01*
X164046048Y-76210390D02*
X164093667Y-76162771D01*
X164093667Y-76162771D02*
X164188905Y-76115152D01*
X164188905Y-76115152D02*
X164331762Y-76115152D01*
X164331762Y-76115152D02*
X164427000Y-76162771D01*
X164427000Y-76162771D02*
X164474619Y-76258009D01*
X164474619Y-76258009D02*
X164474619Y-76781819D01*
X193000333Y-139392819D02*
X192667000Y-138916628D01*
X192428905Y-139392819D02*
X192428905Y-138392819D01*
X192428905Y-138392819D02*
X192809857Y-138392819D01*
X192809857Y-138392819D02*
X192905095Y-138440438D01*
X192905095Y-138440438D02*
X192952714Y-138488057D01*
X192952714Y-138488057D02*
X193000333Y-138583295D01*
X193000333Y-138583295D02*
X193000333Y-138726152D01*
X193000333Y-138726152D02*
X192952714Y-138821390D01*
X192952714Y-138821390D02*
X192905095Y-138869009D01*
X192905095Y-138869009D02*
X192809857Y-138916628D01*
X192809857Y-138916628D02*
X192428905Y-138916628D01*
X193333667Y-138392819D02*
X193952714Y-138392819D01*
X193952714Y-138392819D02*
X193619381Y-138773771D01*
X193619381Y-138773771D02*
X193762238Y-138773771D01*
X193762238Y-138773771D02*
X193857476Y-138821390D01*
X193857476Y-138821390D02*
X193905095Y-138869009D01*
X193905095Y-138869009D02*
X193952714Y-138964247D01*
X193952714Y-138964247D02*
X193952714Y-139202342D01*
X193952714Y-139202342D02*
X193905095Y-139297580D01*
X193905095Y-139297580D02*
X193857476Y-139345200D01*
X193857476Y-139345200D02*
X193762238Y-139392819D01*
X193762238Y-139392819D02*
X193476524Y-139392819D01*
X193476524Y-139392819D02*
X193381286Y-139345200D01*
X193381286Y-139345200D02*
X193333667Y-139297580D01*
X193025733Y-141805819D02*
X192692400Y-141329628D01*
X192454305Y-141805819D02*
X192454305Y-140805819D01*
X192454305Y-140805819D02*
X192835257Y-140805819D01*
X192835257Y-140805819D02*
X192930495Y-140853438D01*
X192930495Y-140853438D02*
X192978114Y-140901057D01*
X192978114Y-140901057D02*
X193025733Y-140996295D01*
X193025733Y-140996295D02*
X193025733Y-141139152D01*
X193025733Y-141139152D02*
X192978114Y-141234390D01*
X192978114Y-141234390D02*
X192930495Y-141282009D01*
X192930495Y-141282009D02*
X192835257Y-141329628D01*
X192835257Y-141329628D02*
X192454305Y-141329628D01*
X193882876Y-141139152D02*
X193882876Y-141805819D01*
X193644781Y-140758200D02*
X193406686Y-141472485D01*
X193406686Y-141472485D02*
X194025733Y-141472485D01*
X192974933Y-134541419D02*
X192641600Y-134065228D01*
X192403505Y-134541419D02*
X192403505Y-133541419D01*
X192403505Y-133541419D02*
X192784457Y-133541419D01*
X192784457Y-133541419D02*
X192879695Y-133589038D01*
X192879695Y-133589038D02*
X192927314Y-133636657D01*
X192927314Y-133636657D02*
X192974933Y-133731895D01*
X192974933Y-133731895D02*
X192974933Y-133874752D01*
X192974933Y-133874752D02*
X192927314Y-133969990D01*
X192927314Y-133969990D02*
X192879695Y-134017609D01*
X192879695Y-134017609D02*
X192784457Y-134065228D01*
X192784457Y-134065228D02*
X192403505Y-134065228D01*
X193927314Y-134541419D02*
X193355886Y-134541419D01*
X193641600Y-134541419D02*
X193641600Y-133541419D01*
X193641600Y-133541419D02*
X193546362Y-133684276D01*
X193546362Y-133684276D02*
X193451124Y-133779514D01*
X193451124Y-133779514D02*
X193355886Y-133827133D01*
X193001633Y-144193419D02*
X192668300Y-143717228D01*
X192430205Y-144193419D02*
X192430205Y-143193419D01*
X192430205Y-143193419D02*
X192811157Y-143193419D01*
X192811157Y-143193419D02*
X192906395Y-143241038D01*
X192906395Y-143241038D02*
X192954014Y-143288657D01*
X192954014Y-143288657D02*
X193001633Y-143383895D01*
X193001633Y-143383895D02*
X193001633Y-143526752D01*
X193001633Y-143526752D02*
X192954014Y-143621990D01*
X192954014Y-143621990D02*
X192906395Y-143669609D01*
X192906395Y-143669609D02*
X192811157Y-143717228D01*
X192811157Y-143717228D02*
X192430205Y-143717228D01*
X193906395Y-143193419D02*
X193430205Y-143193419D01*
X193430205Y-143193419D02*
X193382586Y-143669609D01*
X193382586Y-143669609D02*
X193430205Y-143621990D01*
X193430205Y-143621990D02*
X193525443Y-143574371D01*
X193525443Y-143574371D02*
X193763538Y-143574371D01*
X193763538Y-143574371D02*
X193858776Y-143621990D01*
X193858776Y-143621990D02*
X193906395Y-143669609D01*
X193906395Y-143669609D02*
X193954014Y-143764847D01*
X193954014Y-143764847D02*
X193954014Y-144002942D01*
X193954014Y-144002942D02*
X193906395Y-144098180D01*
X193906395Y-144098180D02*
X193858776Y-144145800D01*
X193858776Y-144145800D02*
X193763538Y-144193419D01*
X193763538Y-144193419D02*
X193525443Y-144193419D01*
X193525443Y-144193419D02*
X193430205Y-144145800D01*
X193430205Y-144145800D02*
X193382586Y-144098180D01*
X192974933Y-136979819D02*
X192641600Y-136503628D01*
X192403505Y-136979819D02*
X192403505Y-135979819D01*
X192403505Y-135979819D02*
X192784457Y-135979819D01*
X192784457Y-135979819D02*
X192879695Y-136027438D01*
X192879695Y-136027438D02*
X192927314Y-136075057D01*
X192927314Y-136075057D02*
X192974933Y-136170295D01*
X192974933Y-136170295D02*
X192974933Y-136313152D01*
X192974933Y-136313152D02*
X192927314Y-136408390D01*
X192927314Y-136408390D02*
X192879695Y-136456009D01*
X192879695Y-136456009D02*
X192784457Y-136503628D01*
X192784457Y-136503628D02*
X192403505Y-136503628D01*
X193355886Y-136075057D02*
X193403505Y-136027438D01*
X193403505Y-136027438D02*
X193498743Y-135979819D01*
X193498743Y-135979819D02*
X193736838Y-135979819D01*
X193736838Y-135979819D02*
X193832076Y-136027438D01*
X193832076Y-136027438D02*
X193879695Y-136075057D01*
X193879695Y-136075057D02*
X193927314Y-136170295D01*
X193927314Y-136170295D02*
X193927314Y-136265533D01*
X193927314Y-136265533D02*
X193879695Y-136408390D01*
X193879695Y-136408390D02*
X193308267Y-136979819D01*
X193308267Y-136979819D02*
X193927314Y-136979819D01*
X115490666Y-83751009D02*
X115157333Y-83751009D01*
X115157333Y-84274819D02*
X115157333Y-83274819D01*
X115157333Y-83274819D02*
X115633523Y-83274819D01*
X116538285Y-84274819D02*
X115966857Y-84274819D01*
X116252571Y-84274819D02*
X116252571Y-83274819D01*
X116252571Y-83274819D02*
X116157333Y-83417676D01*
X116157333Y-83417676D02*
X116062095Y-83512914D01*
X116062095Y-83512914D02*
X115966857Y-83560533D01*
X115403333Y-103325819D02*
X115070000Y-102849628D01*
X114831905Y-103325819D02*
X114831905Y-102325819D01*
X114831905Y-102325819D02*
X115212857Y-102325819D01*
X115212857Y-102325819D02*
X115308095Y-102373438D01*
X115308095Y-102373438D02*
X115355714Y-102421057D01*
X115355714Y-102421057D02*
X115403333Y-102516295D01*
X115403333Y-102516295D02*
X115403333Y-102659152D01*
X115403333Y-102659152D02*
X115355714Y-102754390D01*
X115355714Y-102754390D02*
X115308095Y-102802009D01*
X115308095Y-102802009D02*
X115212857Y-102849628D01*
X115212857Y-102849628D02*
X114831905Y-102849628D01*
X116260476Y-102325819D02*
X116070000Y-102325819D01*
X116070000Y-102325819D02*
X115974762Y-102373438D01*
X115974762Y-102373438D02*
X115927143Y-102421057D01*
X115927143Y-102421057D02*
X115831905Y-102563914D01*
X115831905Y-102563914D02*
X115784286Y-102754390D01*
X115784286Y-102754390D02*
X115784286Y-103135342D01*
X115784286Y-103135342D02*
X115831905Y-103230580D01*
X115831905Y-103230580D02*
X115879524Y-103278200D01*
X115879524Y-103278200D02*
X115974762Y-103325819D01*
X115974762Y-103325819D02*
X116165238Y-103325819D01*
X116165238Y-103325819D02*
X116260476Y-103278200D01*
X116260476Y-103278200D02*
X116308095Y-103230580D01*
X116308095Y-103230580D02*
X116355714Y-103135342D01*
X116355714Y-103135342D02*
X116355714Y-102897247D01*
X116355714Y-102897247D02*
X116308095Y-102802009D01*
X116308095Y-102802009D02*
X116260476Y-102754390D01*
X116260476Y-102754390D02*
X116165238Y-102706771D01*
X116165238Y-102706771D02*
X115974762Y-102706771D01*
X115974762Y-102706771D02*
X115879524Y-102754390D01*
X115879524Y-102754390D02*
X115831905Y-102802009D01*
X115831905Y-102802009D02*
X115784286Y-102897247D01*
X148237666Y-145344819D02*
X148237666Y-146059104D01*
X148237666Y-146059104D02*
X148190047Y-146201961D01*
X148190047Y-146201961D02*
X148094809Y-146297200D01*
X148094809Y-146297200D02*
X147951952Y-146344819D01*
X147951952Y-146344819D02*
X147856714Y-146344819D01*
X148761476Y-146344819D02*
X148951952Y-146344819D01*
X148951952Y-146344819D02*
X149047190Y-146297200D01*
X149047190Y-146297200D02*
X149094809Y-146249580D01*
X149094809Y-146249580D02*
X149190047Y-146106723D01*
X149190047Y-146106723D02*
X149237666Y-145916247D01*
X149237666Y-145916247D02*
X149237666Y-145535295D01*
X149237666Y-145535295D02*
X149190047Y-145440057D01*
X149190047Y-145440057D02*
X149142428Y-145392438D01*
X149142428Y-145392438D02*
X149047190Y-145344819D01*
X149047190Y-145344819D02*
X148856714Y-145344819D01*
X148856714Y-145344819D02*
X148761476Y-145392438D01*
X148761476Y-145392438D02*
X148713857Y-145440057D01*
X148713857Y-145440057D02*
X148666238Y-145535295D01*
X148666238Y-145535295D02*
X148666238Y-145773390D01*
X148666238Y-145773390D02*
X148713857Y-145868628D01*
X148713857Y-145868628D02*
X148761476Y-145916247D01*
X148761476Y-145916247D02*
X148856714Y-145963866D01*
X148856714Y-145963866D02*
X149047190Y-145963866D01*
X149047190Y-145963866D02*
X149142428Y-145916247D01*
X149142428Y-145916247D02*
X149190047Y-145868628D01*
X149190047Y-145868628D02*
X149237666Y-145773390D01*
X141428142Y-131677200D02*
X141570999Y-131724819D01*
X141570999Y-131724819D02*
X141809094Y-131724819D01*
X141809094Y-131724819D02*
X141904332Y-131677200D01*
X141904332Y-131677200D02*
X141951951Y-131629580D01*
X141951951Y-131629580D02*
X141999570Y-131534342D01*
X141999570Y-131534342D02*
X141999570Y-131439104D01*
X141999570Y-131439104D02*
X141951951Y-131343866D01*
X141951951Y-131343866D02*
X141904332Y-131296247D01*
X141904332Y-131296247D02*
X141809094Y-131248628D01*
X141809094Y-131248628D02*
X141618618Y-131201009D01*
X141618618Y-131201009D02*
X141523380Y-131153390D01*
X141523380Y-131153390D02*
X141475761Y-131105771D01*
X141475761Y-131105771D02*
X141428142Y-131010533D01*
X141428142Y-131010533D02*
X141428142Y-130915295D01*
X141428142Y-130915295D02*
X141475761Y-130820057D01*
X141475761Y-130820057D02*
X141523380Y-130772438D01*
X141523380Y-130772438D02*
X141618618Y-130724819D01*
X141618618Y-130724819D02*
X141856713Y-130724819D01*
X141856713Y-130724819D02*
X141999570Y-130772438D01*
X142332904Y-131058152D02*
X142523380Y-131724819D01*
X142523380Y-131724819D02*
X142713856Y-131248628D01*
X142713856Y-131248628D02*
X142904332Y-131724819D01*
X142904332Y-131724819D02*
X143094808Y-131058152D01*
X143475761Y-131724819D02*
X143475761Y-131058152D01*
X143475761Y-130724819D02*
X143428142Y-130772438D01*
X143428142Y-130772438D02*
X143475761Y-130820057D01*
X143475761Y-130820057D02*
X143523380Y-130772438D01*
X143523380Y-130772438D02*
X143475761Y-130724819D01*
X143475761Y-130724819D02*
X143475761Y-130820057D01*
X143809094Y-131058152D02*
X144190046Y-131058152D01*
X143951951Y-130724819D02*
X143951951Y-131581961D01*
X143951951Y-131581961D02*
X143999570Y-131677200D01*
X143999570Y-131677200D02*
X144094808Y-131724819D01*
X144094808Y-131724819D02*
X144190046Y-131724819D01*
X144951951Y-131677200D02*
X144856713Y-131724819D01*
X144856713Y-131724819D02*
X144666237Y-131724819D01*
X144666237Y-131724819D02*
X144570999Y-131677200D01*
X144570999Y-131677200D02*
X144523380Y-131629580D01*
X144523380Y-131629580D02*
X144475761Y-131534342D01*
X144475761Y-131534342D02*
X144475761Y-131248628D01*
X144475761Y-131248628D02*
X144523380Y-131153390D01*
X144523380Y-131153390D02*
X144570999Y-131105771D01*
X144570999Y-131105771D02*
X144666237Y-131058152D01*
X144666237Y-131058152D02*
X144856713Y-131058152D01*
X144856713Y-131058152D02*
X144951951Y-131105771D01*
X145380523Y-131724819D02*
X145380523Y-130724819D01*
X145809094Y-131724819D02*
X145809094Y-131201009D01*
X145809094Y-131201009D02*
X145761475Y-131105771D01*
X145761475Y-131105771D02*
X145666237Y-131058152D01*
X145666237Y-131058152D02*
X145523380Y-131058152D01*
X145523380Y-131058152D02*
X145428142Y-131105771D01*
X145428142Y-131105771D02*
X145380523Y-131153390D01*
X146666237Y-131677200D02*
X146570999Y-131724819D01*
X146570999Y-131724819D02*
X146380523Y-131724819D01*
X146380523Y-131724819D02*
X146285285Y-131677200D01*
X146285285Y-131677200D02*
X146237666Y-131581961D01*
X146237666Y-131581961D02*
X146237666Y-131201009D01*
X146237666Y-131201009D02*
X146285285Y-131105771D01*
X146285285Y-131105771D02*
X146380523Y-131058152D01*
X146380523Y-131058152D02*
X146570999Y-131058152D01*
X146570999Y-131058152D02*
X146666237Y-131105771D01*
X146666237Y-131105771D02*
X146713856Y-131201009D01*
X146713856Y-131201009D02*
X146713856Y-131296247D01*
X146713856Y-131296247D02*
X146237666Y-131391485D01*
X147094809Y-131677200D02*
X147190047Y-131724819D01*
X147190047Y-131724819D02*
X147380523Y-131724819D01*
X147380523Y-131724819D02*
X147475761Y-131677200D01*
X147475761Y-131677200D02*
X147523380Y-131581961D01*
X147523380Y-131581961D02*
X147523380Y-131534342D01*
X147523380Y-131534342D02*
X147475761Y-131439104D01*
X147475761Y-131439104D02*
X147380523Y-131391485D01*
X147380523Y-131391485D02*
X147237666Y-131391485D01*
X147237666Y-131391485D02*
X147142428Y-131343866D01*
X147142428Y-131343866D02*
X147094809Y-131248628D01*
X147094809Y-131248628D02*
X147094809Y-131201009D01*
X147094809Y-131201009D02*
X147142428Y-131105771D01*
X147142428Y-131105771D02*
X147237666Y-131058152D01*
X147237666Y-131058152D02*
X147380523Y-131058152D01*
X147380523Y-131058152D02*
X147475761Y-131105771D01*
X147713857Y-131820057D02*
X148475761Y-131820057D01*
X148713857Y-131724819D02*
X148713857Y-130724819D01*
X149190047Y-131058152D02*
X149190047Y-131724819D01*
X149190047Y-131153390D02*
X149237666Y-131105771D01*
X149237666Y-131105771D02*
X149332904Y-131058152D01*
X149332904Y-131058152D02*
X149475761Y-131058152D01*
X149475761Y-131058152D02*
X149570999Y-131105771D01*
X149570999Y-131105771D02*
X149618618Y-131201009D01*
X149618618Y-131201009D02*
X149618618Y-131724819D01*
X150523380Y-131724819D02*
X150523380Y-130724819D01*
X150523380Y-131677200D02*
X150428142Y-131724819D01*
X150428142Y-131724819D02*
X150237666Y-131724819D01*
X150237666Y-131724819D02*
X150142428Y-131677200D01*
X150142428Y-131677200D02*
X150094809Y-131629580D01*
X150094809Y-131629580D02*
X150047190Y-131534342D01*
X150047190Y-131534342D02*
X150047190Y-131248628D01*
X150047190Y-131248628D02*
X150094809Y-131153390D01*
X150094809Y-131153390D02*
X150142428Y-131105771D01*
X150142428Y-131105771D02*
X150237666Y-131058152D01*
X150237666Y-131058152D02*
X150428142Y-131058152D01*
X150428142Y-131058152D02*
X150523380Y-131105771D01*
X150999571Y-131724819D02*
X150999571Y-131058152D01*
X150999571Y-130724819D02*
X150951952Y-130772438D01*
X150951952Y-130772438D02*
X150999571Y-130820057D01*
X150999571Y-130820057D02*
X151047190Y-130772438D01*
X151047190Y-130772438D02*
X150999571Y-130724819D01*
X150999571Y-130724819D02*
X150999571Y-130820057D01*
X151904332Y-131677200D02*
X151809094Y-131724819D01*
X151809094Y-131724819D02*
X151618618Y-131724819D01*
X151618618Y-131724819D02*
X151523380Y-131677200D01*
X151523380Y-131677200D02*
X151475761Y-131629580D01*
X151475761Y-131629580D02*
X151428142Y-131534342D01*
X151428142Y-131534342D02*
X151428142Y-131248628D01*
X151428142Y-131248628D02*
X151475761Y-131153390D01*
X151475761Y-131153390D02*
X151523380Y-131105771D01*
X151523380Y-131105771D02*
X151618618Y-131058152D01*
X151618618Y-131058152D02*
X151809094Y-131058152D01*
X151809094Y-131058152D02*
X151904332Y-131105771D01*
X152761475Y-131724819D02*
X152761475Y-131201009D01*
X152761475Y-131201009D02*
X152713856Y-131105771D01*
X152713856Y-131105771D02*
X152618618Y-131058152D01*
X152618618Y-131058152D02*
X152428142Y-131058152D01*
X152428142Y-131058152D02*
X152332904Y-131105771D01*
X152761475Y-131677200D02*
X152666237Y-131724819D01*
X152666237Y-131724819D02*
X152428142Y-131724819D01*
X152428142Y-131724819D02*
X152332904Y-131677200D01*
X152332904Y-131677200D02*
X152285285Y-131581961D01*
X152285285Y-131581961D02*
X152285285Y-131486723D01*
X152285285Y-131486723D02*
X152332904Y-131391485D01*
X152332904Y-131391485D02*
X152428142Y-131343866D01*
X152428142Y-131343866D02*
X152666237Y-131343866D01*
X152666237Y-131343866D02*
X152761475Y-131296247D01*
X153094809Y-131058152D02*
X153475761Y-131058152D01*
X153237666Y-130724819D02*
X153237666Y-131581961D01*
X153237666Y-131581961D02*
X153285285Y-131677200D01*
X153285285Y-131677200D02*
X153380523Y-131724819D01*
X153380523Y-131724819D02*
X153475761Y-131724819D01*
X153951952Y-131724819D02*
X153856714Y-131677200D01*
X153856714Y-131677200D02*
X153809095Y-131629580D01*
X153809095Y-131629580D02*
X153761476Y-131534342D01*
X153761476Y-131534342D02*
X153761476Y-131248628D01*
X153761476Y-131248628D02*
X153809095Y-131153390D01*
X153809095Y-131153390D02*
X153856714Y-131105771D01*
X153856714Y-131105771D02*
X153951952Y-131058152D01*
X153951952Y-131058152D02*
X154094809Y-131058152D01*
X154094809Y-131058152D02*
X154190047Y-131105771D01*
X154190047Y-131105771D02*
X154237666Y-131153390D01*
X154237666Y-131153390D02*
X154285285Y-131248628D01*
X154285285Y-131248628D02*
X154285285Y-131534342D01*
X154285285Y-131534342D02*
X154237666Y-131629580D01*
X154237666Y-131629580D02*
X154190047Y-131677200D01*
X154190047Y-131677200D02*
X154094809Y-131724819D01*
X154094809Y-131724819D02*
X153951952Y-131724819D01*
X154713857Y-131724819D02*
X154713857Y-131058152D01*
X154713857Y-131248628D02*
X154761476Y-131153390D01*
X154761476Y-131153390D02*
X154809095Y-131105771D01*
X154809095Y-131105771D02*
X154904333Y-131058152D01*
X154904333Y-131058152D02*
X154999571Y-131058152D01*
X155285286Y-131677200D02*
X155380524Y-131724819D01*
X155380524Y-131724819D02*
X155571000Y-131724819D01*
X155571000Y-131724819D02*
X155666238Y-131677200D01*
X155666238Y-131677200D02*
X155713857Y-131581961D01*
X155713857Y-131581961D02*
X155713857Y-131534342D01*
X155713857Y-131534342D02*
X155666238Y-131439104D01*
X155666238Y-131439104D02*
X155571000Y-131391485D01*
X155571000Y-131391485D02*
X155428143Y-131391485D01*
X155428143Y-131391485D02*
X155332905Y-131343866D01*
X155332905Y-131343866D02*
X155285286Y-131248628D01*
X155285286Y-131248628D02*
X155285286Y-131201009D01*
X155285286Y-131201009D02*
X155332905Y-131105771D01*
X155332905Y-131105771D02*
X155428143Y-131058152D01*
X155428143Y-131058152D02*
X155571000Y-131058152D01*
X155571000Y-131058152D02*
X155666238Y-131105771D01*
D10*
X104740419Y-63706333D02*
X105454704Y-63706333D01*
X105454704Y-63706333D02*
X105597561Y-63753952D01*
X105597561Y-63753952D02*
X105692800Y-63849190D01*
X105692800Y-63849190D02*
X105740419Y-63992047D01*
X105740419Y-63992047D02*
X105740419Y-64087285D01*
X104740419Y-62801571D02*
X104740419Y-62992047D01*
X104740419Y-62992047D02*
X104788038Y-63087285D01*
X104788038Y-63087285D02*
X104835657Y-63134904D01*
X104835657Y-63134904D02*
X104978514Y-63230142D01*
X104978514Y-63230142D02*
X105168990Y-63277761D01*
X105168990Y-63277761D02*
X105549942Y-63277761D01*
X105549942Y-63277761D02*
X105645180Y-63230142D01*
X105645180Y-63230142D02*
X105692800Y-63182523D01*
X105692800Y-63182523D02*
X105740419Y-63087285D01*
X105740419Y-63087285D02*
X105740419Y-62896809D01*
X105740419Y-62896809D02*
X105692800Y-62801571D01*
X105692800Y-62801571D02*
X105645180Y-62753952D01*
X105645180Y-62753952D02*
X105549942Y-62706333D01*
X105549942Y-62706333D02*
X105311847Y-62706333D01*
X105311847Y-62706333D02*
X105216609Y-62753952D01*
X105216609Y-62753952D02*
X105168990Y-62801571D01*
X105168990Y-62801571D02*
X105121371Y-62896809D01*
X105121371Y-62896809D02*
X105121371Y-63087285D01*
X105121371Y-63087285D02*
X105168990Y-63182523D01*
X105168990Y-63182523D02*
X105216609Y-63230142D01*
X105216609Y-63230142D02*
X105311847Y-63277761D01*
D11*
X104912438Y-68167095D02*
X104864819Y-68262333D01*
X104864819Y-68262333D02*
X104864819Y-68405190D01*
X104864819Y-68405190D02*
X104912438Y-68548047D01*
X104912438Y-68548047D02*
X105007676Y-68643285D01*
X105007676Y-68643285D02*
X105102914Y-68690904D01*
X105102914Y-68690904D02*
X105293390Y-68738523D01*
X105293390Y-68738523D02*
X105436247Y-68738523D01*
X105436247Y-68738523D02*
X105626723Y-68690904D01*
X105626723Y-68690904D02*
X105721961Y-68643285D01*
X105721961Y-68643285D02*
X105817200Y-68548047D01*
X105817200Y-68548047D02*
X105864819Y-68405190D01*
X105864819Y-68405190D02*
X105864819Y-68309952D01*
X105864819Y-68309952D02*
X105817200Y-68167095D01*
X105817200Y-68167095D02*
X105769580Y-68119476D01*
X105769580Y-68119476D02*
X105436247Y-68119476D01*
X105436247Y-68119476D02*
X105436247Y-68309952D01*
X105864819Y-67690904D02*
X104864819Y-67690904D01*
X104864819Y-67690904D02*
X105864819Y-67119476D01*
X105864819Y-67119476D02*
X104864819Y-67119476D01*
X105864819Y-66643285D02*
X104864819Y-66643285D01*
X104864819Y-66643285D02*
X104864819Y-66405190D01*
X104864819Y-66405190D02*
X104912438Y-66262333D01*
X104912438Y-66262333D02*
X105007676Y-66167095D01*
X105007676Y-66167095D02*
X105102914Y-66119476D01*
X105102914Y-66119476D02*
X105293390Y-66071857D01*
X105293390Y-66071857D02*
X105436247Y-66071857D01*
X105436247Y-66071857D02*
X105626723Y-66119476D01*
X105626723Y-66119476D02*
X105721961Y-66167095D01*
X105721961Y-66167095D02*
X105817200Y-66262333D01*
X105817200Y-66262333D02*
X105864819Y-66405190D01*
X105864819Y-66405190D02*
X105864819Y-66643285D01*
X105864819Y-65119476D02*
X105864819Y-65690904D01*
X105864819Y-65405190D02*
X104864819Y-65405190D01*
X104864819Y-65405190D02*
X105007676Y-65500428D01*
X105007676Y-65500428D02*
X105102914Y-65595666D01*
X105102914Y-65595666D02*
X105150533Y-65690904D01*
X100177695Y-63776819D02*
X100177695Y-62776819D01*
X100177695Y-63253009D02*
X100749123Y-63253009D01*
X100749123Y-63776819D02*
X100749123Y-62776819D01*
X101749123Y-63776819D02*
X101177695Y-63776819D01*
X101463409Y-63776819D02*
X101463409Y-62776819D01*
X101463409Y-62776819D02*
X101368171Y-62919676D01*
X101368171Y-62919676D02*
X101272933Y-63014914D01*
X101272933Y-63014914D02*
X101177695Y-63062533D01*
X137882333Y-103325819D02*
X137549000Y-102849628D01*
X137310905Y-103325819D02*
X137310905Y-102325819D01*
X137310905Y-102325819D02*
X137691857Y-102325819D01*
X137691857Y-102325819D02*
X137787095Y-102373438D01*
X137787095Y-102373438D02*
X137834714Y-102421057D01*
X137834714Y-102421057D02*
X137882333Y-102516295D01*
X137882333Y-102516295D02*
X137882333Y-102659152D01*
X137882333Y-102659152D02*
X137834714Y-102754390D01*
X137834714Y-102754390D02*
X137787095Y-102802009D01*
X137787095Y-102802009D02*
X137691857Y-102849628D01*
X137691857Y-102849628D02*
X137310905Y-102849628D01*
X138215667Y-102325819D02*
X138882333Y-102325819D01*
X138882333Y-102325819D02*
X138453762Y-103325819D01*
X141821819Y-81740333D02*
X142536104Y-81740333D01*
X142536104Y-81740333D02*
X142678961Y-81787952D01*
X142678961Y-81787952D02*
X142774200Y-81883190D01*
X142774200Y-81883190D02*
X142821819Y-82026047D01*
X142821819Y-82026047D02*
X142821819Y-82121285D01*
X141821819Y-81359380D02*
X141821819Y-80740333D01*
X141821819Y-80740333D02*
X142202771Y-81073666D01*
X142202771Y-81073666D02*
X142202771Y-80930809D01*
X142202771Y-80930809D02*
X142250390Y-80835571D01*
X142250390Y-80835571D02*
X142298009Y-80787952D01*
X142298009Y-80787952D02*
X142393247Y-80740333D01*
X142393247Y-80740333D02*
X142631342Y-80740333D01*
X142631342Y-80740333D02*
X142726580Y-80787952D01*
X142726580Y-80787952D02*
X142774200Y-80835571D01*
X142774200Y-80835571D02*
X142821819Y-80930809D01*
X142821819Y-80930809D02*
X142821819Y-81216523D01*
X142821819Y-81216523D02*
X142774200Y-81311761D01*
X142774200Y-81311761D02*
X142726580Y-81359380D01*
X157624819Y-104297475D02*
X156624819Y-104297475D01*
X156624819Y-104297475D02*
X156624819Y-103916523D01*
X156624819Y-103916523D02*
X156672438Y-103821285D01*
X156672438Y-103821285D02*
X156720057Y-103773666D01*
X156720057Y-103773666D02*
X156815295Y-103726047D01*
X156815295Y-103726047D02*
X156958152Y-103726047D01*
X156958152Y-103726047D02*
X157053390Y-103773666D01*
X157053390Y-103773666D02*
X157101009Y-103821285D01*
X157101009Y-103821285D02*
X157148628Y-103916523D01*
X157148628Y-103916523D02*
X157148628Y-104297475D01*
X157101009Y-102964142D02*
X157101009Y-103297475D01*
X157624819Y-103297475D02*
X156624819Y-103297475D01*
X156624819Y-103297475D02*
X156624819Y-102821285D01*
X157624819Y-102440332D02*
X156624819Y-102440332D01*
X156624819Y-102440332D02*
X156624819Y-102202237D01*
X156624819Y-102202237D02*
X156672438Y-102059380D01*
X156672438Y-102059380D02*
X156767676Y-101964142D01*
X156767676Y-101964142D02*
X156862914Y-101916523D01*
X156862914Y-101916523D02*
X157053390Y-101868904D01*
X157053390Y-101868904D02*
X157196247Y-101868904D01*
X157196247Y-101868904D02*
X157386723Y-101916523D01*
X157386723Y-101916523D02*
X157481961Y-101964142D01*
X157481961Y-101964142D02*
X157577200Y-102059380D01*
X157577200Y-102059380D02*
X157624819Y-102202237D01*
X157624819Y-102202237D02*
X157624819Y-102440332D01*
X197967695Y-63776819D02*
X197967695Y-62776819D01*
X197967695Y-63253009D02*
X198539123Y-63253009D01*
X198539123Y-63776819D02*
X198539123Y-62776819D01*
X198967695Y-62872057D02*
X199015314Y-62824438D01*
X199015314Y-62824438D02*
X199110552Y-62776819D01*
X199110552Y-62776819D02*
X199348647Y-62776819D01*
X199348647Y-62776819D02*
X199443885Y-62824438D01*
X199443885Y-62824438D02*
X199491504Y-62872057D01*
X199491504Y-62872057D02*
X199539123Y-62967295D01*
X199539123Y-62967295D02*
X199539123Y-63062533D01*
X199539123Y-63062533D02*
X199491504Y-63205390D01*
X199491504Y-63205390D02*
X198920076Y-63776819D01*
X198920076Y-63776819D02*
X199539123Y-63776819D01*
X160996333Y-103325819D02*
X160663000Y-102849628D01*
X160424905Y-103325819D02*
X160424905Y-102325819D01*
X160424905Y-102325819D02*
X160805857Y-102325819D01*
X160805857Y-102325819D02*
X160901095Y-102373438D01*
X160901095Y-102373438D02*
X160948714Y-102421057D01*
X160948714Y-102421057D02*
X160996333Y-102516295D01*
X160996333Y-102516295D02*
X160996333Y-102659152D01*
X160996333Y-102659152D02*
X160948714Y-102754390D01*
X160948714Y-102754390D02*
X160901095Y-102802009D01*
X160901095Y-102802009D02*
X160805857Y-102849628D01*
X160805857Y-102849628D02*
X160424905Y-102849628D01*
X161567762Y-102754390D02*
X161472524Y-102706771D01*
X161472524Y-102706771D02*
X161424905Y-102659152D01*
X161424905Y-102659152D02*
X161377286Y-102563914D01*
X161377286Y-102563914D02*
X161377286Y-102516295D01*
X161377286Y-102516295D02*
X161424905Y-102421057D01*
X161424905Y-102421057D02*
X161472524Y-102373438D01*
X161472524Y-102373438D02*
X161567762Y-102325819D01*
X161567762Y-102325819D02*
X161758238Y-102325819D01*
X161758238Y-102325819D02*
X161853476Y-102373438D01*
X161853476Y-102373438D02*
X161901095Y-102421057D01*
X161901095Y-102421057D02*
X161948714Y-102516295D01*
X161948714Y-102516295D02*
X161948714Y-102563914D01*
X161948714Y-102563914D02*
X161901095Y-102659152D01*
X161901095Y-102659152D02*
X161853476Y-102706771D01*
X161853476Y-102706771D02*
X161758238Y-102754390D01*
X161758238Y-102754390D02*
X161567762Y-102754390D01*
X161567762Y-102754390D02*
X161472524Y-102802009D01*
X161472524Y-102802009D02*
X161424905Y-102849628D01*
X161424905Y-102849628D02*
X161377286Y-102944866D01*
X161377286Y-102944866D02*
X161377286Y-103135342D01*
X161377286Y-103135342D02*
X161424905Y-103230580D01*
X161424905Y-103230580D02*
X161472524Y-103278200D01*
X161472524Y-103278200D02*
X161567762Y-103325819D01*
X161567762Y-103325819D02*
X161758238Y-103325819D01*
X161758238Y-103325819D02*
X161853476Y-103278200D01*
X161853476Y-103278200D02*
X161901095Y-103230580D01*
X161901095Y-103230580D02*
X161948714Y-103135342D01*
X161948714Y-103135342D02*
X161948714Y-102944866D01*
X161948714Y-102944866D02*
X161901095Y-102849628D01*
X161901095Y-102849628D02*
X161853476Y-102802009D01*
X161853476Y-102802009D02*
X161758238Y-102754390D01*
D10*
X120107419Y-64468333D02*
X120821704Y-64468333D01*
X120821704Y-64468333D02*
X120964561Y-64515952D01*
X120964561Y-64515952D02*
X121059800Y-64611190D01*
X121059800Y-64611190D02*
X121107419Y-64754047D01*
X121107419Y-64754047D02*
X121107419Y-64849285D01*
X120107419Y-64087380D02*
X120107419Y-63420714D01*
X120107419Y-63420714D02*
X121107419Y-63849285D01*
D11*
X125994438Y-68167095D02*
X125946819Y-68262333D01*
X125946819Y-68262333D02*
X125946819Y-68405190D01*
X125946819Y-68405190D02*
X125994438Y-68548047D01*
X125994438Y-68548047D02*
X126089676Y-68643285D01*
X126089676Y-68643285D02*
X126184914Y-68690904D01*
X126184914Y-68690904D02*
X126375390Y-68738523D01*
X126375390Y-68738523D02*
X126518247Y-68738523D01*
X126518247Y-68738523D02*
X126708723Y-68690904D01*
X126708723Y-68690904D02*
X126803961Y-68643285D01*
X126803961Y-68643285D02*
X126899200Y-68548047D01*
X126899200Y-68548047D02*
X126946819Y-68405190D01*
X126946819Y-68405190D02*
X126946819Y-68309952D01*
X126946819Y-68309952D02*
X126899200Y-68167095D01*
X126899200Y-68167095D02*
X126851580Y-68119476D01*
X126851580Y-68119476D02*
X126518247Y-68119476D01*
X126518247Y-68119476D02*
X126518247Y-68309952D01*
X126946819Y-67690904D02*
X125946819Y-67690904D01*
X125946819Y-67690904D02*
X126946819Y-67119476D01*
X126946819Y-67119476D02*
X125946819Y-67119476D01*
X126946819Y-66643285D02*
X125946819Y-66643285D01*
X125946819Y-66643285D02*
X125946819Y-66405190D01*
X125946819Y-66405190D02*
X125994438Y-66262333D01*
X125994438Y-66262333D02*
X126089676Y-66167095D01*
X126089676Y-66167095D02*
X126184914Y-66119476D01*
X126184914Y-66119476D02*
X126375390Y-66071857D01*
X126375390Y-66071857D02*
X126518247Y-66071857D01*
X126518247Y-66071857D02*
X126708723Y-66119476D01*
X126708723Y-66119476D02*
X126803961Y-66167095D01*
X126803961Y-66167095D02*
X126899200Y-66262333D01*
X126899200Y-66262333D02*
X126946819Y-66405190D01*
X126946819Y-66405190D02*
X126946819Y-66643285D01*
X126042057Y-65690904D02*
X125994438Y-65643285D01*
X125994438Y-65643285D02*
X125946819Y-65548047D01*
X125946819Y-65548047D02*
X125946819Y-65309952D01*
X125946819Y-65309952D02*
X125994438Y-65214714D01*
X125994438Y-65214714D02*
X126042057Y-65167095D01*
X126042057Y-65167095D02*
X126137295Y-65119476D01*
X126137295Y-65119476D02*
X126232533Y-65119476D01*
X126232533Y-65119476D02*
X126375390Y-65167095D01*
X126375390Y-65167095D02*
X126946819Y-65738523D01*
X126946819Y-65738523D02*
X126946819Y-65119476D01*
X100177695Y-131086819D02*
X100177695Y-130086819D01*
X100177695Y-130563009D02*
X100749123Y-130563009D01*
X100749123Y-131086819D02*
X100749123Y-130086819D01*
X101130076Y-130086819D02*
X101749123Y-130086819D01*
X101749123Y-130086819D02*
X101415790Y-130467771D01*
X101415790Y-130467771D02*
X101558647Y-130467771D01*
X101558647Y-130467771D02*
X101653885Y-130515390D01*
X101653885Y-130515390D02*
X101701504Y-130563009D01*
X101701504Y-130563009D02*
X101749123Y-130658247D01*
X101749123Y-130658247D02*
X101749123Y-130896342D01*
X101749123Y-130896342D02*
X101701504Y-130991580D01*
X101701504Y-130991580D02*
X101653885Y-131039200D01*
X101653885Y-131039200D02*
X101558647Y-131086819D01*
X101558647Y-131086819D02*
X101272933Y-131086819D01*
X101272933Y-131086819D02*
X101177695Y-131039200D01*
X101177695Y-131039200D02*
X101130076Y-130991580D01*
X164681819Y-81740333D02*
X165396104Y-81740333D01*
X165396104Y-81740333D02*
X165538961Y-81787952D01*
X165538961Y-81787952D02*
X165634200Y-81883190D01*
X165634200Y-81883190D02*
X165681819Y-82026047D01*
X165681819Y-82026047D02*
X165681819Y-82121285D01*
X165015152Y-80835571D02*
X165681819Y-80835571D01*
X164634200Y-81073666D02*
X165348485Y-81311761D01*
X165348485Y-81311761D02*
X165348485Y-80692714D01*
X180484819Y-105845094D02*
X179484819Y-105845094D01*
X179484819Y-105845094D02*
X180484819Y-105273666D01*
X180484819Y-105273666D02*
X179484819Y-105273666D01*
X180484819Y-104368904D02*
X179961009Y-104368904D01*
X179961009Y-104368904D02*
X179865771Y-104416523D01*
X179865771Y-104416523D02*
X179818152Y-104511761D01*
X179818152Y-104511761D02*
X179818152Y-104702237D01*
X179818152Y-104702237D02*
X179865771Y-104797475D01*
X180437200Y-104368904D02*
X180484819Y-104464142D01*
X180484819Y-104464142D02*
X180484819Y-104702237D01*
X180484819Y-104702237D02*
X180437200Y-104797475D01*
X180437200Y-104797475D02*
X180341961Y-104845094D01*
X180341961Y-104845094D02*
X180246723Y-104845094D01*
X180246723Y-104845094D02*
X180151485Y-104797475D01*
X180151485Y-104797475D02*
X180103866Y-104702237D01*
X180103866Y-104702237D02*
X180103866Y-104464142D01*
X180103866Y-104464142D02*
X180056247Y-104368904D01*
X179818152Y-103987951D02*
X180484819Y-103749856D01*
X180484819Y-103749856D02*
X179818152Y-103511761D01*
X180389580Y-102559380D02*
X180437200Y-102606999D01*
X180437200Y-102606999D02*
X180484819Y-102749856D01*
X180484819Y-102749856D02*
X180484819Y-102845094D01*
X180484819Y-102845094D02*
X180437200Y-102987951D01*
X180437200Y-102987951D02*
X180341961Y-103083189D01*
X180341961Y-103083189D02*
X180246723Y-103130808D01*
X180246723Y-103130808D02*
X180056247Y-103178427D01*
X180056247Y-103178427D02*
X179913390Y-103178427D01*
X179913390Y-103178427D02*
X179722914Y-103130808D01*
X179722914Y-103130808D02*
X179627676Y-103083189D01*
X179627676Y-103083189D02*
X179532438Y-102987951D01*
X179532438Y-102987951D02*
X179484819Y-102845094D01*
X179484819Y-102845094D02*
X179484819Y-102749856D01*
X179484819Y-102749856D02*
X179532438Y-102606999D01*
X179532438Y-102606999D02*
X179580057Y-102559380D01*
X180484819Y-101987951D02*
X180437200Y-102083189D01*
X180437200Y-102083189D02*
X180389580Y-102130808D01*
X180389580Y-102130808D02*
X180294342Y-102178427D01*
X180294342Y-102178427D02*
X180008628Y-102178427D01*
X180008628Y-102178427D02*
X179913390Y-102130808D01*
X179913390Y-102130808D02*
X179865771Y-102083189D01*
X179865771Y-102083189D02*
X179818152Y-101987951D01*
X179818152Y-101987951D02*
X179818152Y-101845094D01*
X179818152Y-101845094D02*
X179865771Y-101749856D01*
X179865771Y-101749856D02*
X179913390Y-101702237D01*
X179913390Y-101702237D02*
X180008628Y-101654618D01*
X180008628Y-101654618D02*
X180294342Y-101654618D01*
X180294342Y-101654618D02*
X180389580Y-101702237D01*
X180389580Y-101702237D02*
X180437200Y-101749856D01*
X180437200Y-101749856D02*
X180484819Y-101845094D01*
X180484819Y-101845094D02*
X180484819Y-101987951D01*
X180484819Y-101226046D02*
X179818152Y-101226046D01*
X179913390Y-101226046D02*
X179865771Y-101178427D01*
X179865771Y-101178427D02*
X179818152Y-101083189D01*
X179818152Y-101083189D02*
X179818152Y-100940332D01*
X179818152Y-100940332D02*
X179865771Y-100845094D01*
X179865771Y-100845094D02*
X179961009Y-100797475D01*
X179961009Y-100797475D02*
X180484819Y-100797475D01*
X179961009Y-100797475D02*
X179865771Y-100749856D01*
X179865771Y-100749856D02*
X179818152Y-100654618D01*
X179818152Y-100654618D02*
X179818152Y-100511761D01*
X179818152Y-100511761D02*
X179865771Y-100416522D01*
X179865771Y-100416522D02*
X179961009Y-100368903D01*
X179961009Y-100368903D02*
X180484819Y-100368903D01*
X126539666Y-74765819D02*
X126539666Y-75480104D01*
X126539666Y-75480104D02*
X126492047Y-75622961D01*
X126492047Y-75622961D02*
X126396809Y-75718200D01*
X126396809Y-75718200D02*
X126253952Y-75765819D01*
X126253952Y-75765819D02*
X126158714Y-75765819D01*
X126968238Y-74861057D02*
X127015857Y-74813438D01*
X127015857Y-74813438D02*
X127111095Y-74765819D01*
X127111095Y-74765819D02*
X127349190Y-74765819D01*
X127349190Y-74765819D02*
X127444428Y-74813438D01*
X127444428Y-74813438D02*
X127492047Y-74861057D01*
X127492047Y-74861057D02*
X127539666Y-74956295D01*
X127539666Y-74956295D02*
X127539666Y-75051533D01*
X127539666Y-75051533D02*
X127492047Y-75194390D01*
X127492047Y-75194390D02*
X126920619Y-75765819D01*
X126920619Y-75765819D02*
X127539666Y-75765819D01*
X134764819Y-104368904D02*
X133764819Y-104368904D01*
X133764819Y-104368904D02*
X134479104Y-104035571D01*
X134479104Y-104035571D02*
X133764819Y-103702238D01*
X133764819Y-103702238D02*
X134764819Y-103702238D01*
X134241009Y-102892714D02*
X134241009Y-103226047D01*
X134764819Y-103226047D02*
X133764819Y-103226047D01*
X133764819Y-103226047D02*
X133764819Y-102749857D01*
X134764819Y-102368904D02*
X133764819Y-102368904D01*
X133764819Y-102368904D02*
X133764819Y-102130809D01*
X133764819Y-102130809D02*
X133812438Y-101987952D01*
X133812438Y-101987952D02*
X133907676Y-101892714D01*
X133907676Y-101892714D02*
X134002914Y-101845095D01*
X134002914Y-101845095D02*
X134193390Y-101797476D01*
X134193390Y-101797476D02*
X134336247Y-101797476D01*
X134336247Y-101797476D02*
X134526723Y-101845095D01*
X134526723Y-101845095D02*
X134621961Y-101892714D01*
X134621961Y-101892714D02*
X134717200Y-101987952D01*
X134717200Y-101987952D02*
X134764819Y-102130809D01*
X134764819Y-102130809D02*
X134764819Y-102368904D01*
X187541819Y-81740333D02*
X188256104Y-81740333D01*
X188256104Y-81740333D02*
X188398961Y-81787952D01*
X188398961Y-81787952D02*
X188494200Y-81883190D01*
X188494200Y-81883190D02*
X188541819Y-82026047D01*
X188541819Y-82026047D02*
X188541819Y-82121285D01*
X187541819Y-80787952D02*
X187541819Y-81264142D01*
X187541819Y-81264142D02*
X188018009Y-81311761D01*
X188018009Y-81311761D02*
X187970390Y-81264142D01*
X187970390Y-81264142D02*
X187922771Y-81168904D01*
X187922771Y-81168904D02*
X187922771Y-80930809D01*
X187922771Y-80930809D02*
X187970390Y-80835571D01*
X187970390Y-80835571D02*
X188018009Y-80787952D01*
X188018009Y-80787952D02*
X188113247Y-80740333D01*
X188113247Y-80740333D02*
X188351342Y-80740333D01*
X188351342Y-80740333D02*
X188446580Y-80787952D01*
X188446580Y-80787952D02*
X188494200Y-80835571D01*
X188494200Y-80835571D02*
X188541819Y-80930809D01*
X188541819Y-80930809D02*
X188541819Y-81168904D01*
X188541819Y-81168904D02*
X188494200Y-81264142D01*
X188494200Y-81264142D02*
X188446580Y-81311761D01*
X188256104Y-107195571D02*
X188256104Y-106719381D01*
X188541819Y-107290809D02*
X187541819Y-106957476D01*
X187541819Y-106957476D02*
X188541819Y-106624143D01*
X188541819Y-106290809D02*
X187875152Y-106290809D01*
X187541819Y-106290809D02*
X187589438Y-106338428D01*
X187589438Y-106338428D02*
X187637057Y-106290809D01*
X187637057Y-106290809D02*
X187589438Y-106243190D01*
X187589438Y-106243190D02*
X187541819Y-106290809D01*
X187541819Y-106290809D02*
X187637057Y-106290809D01*
X188541819Y-105814619D02*
X187875152Y-105814619D01*
X188065628Y-105814619D02*
X187970390Y-105767000D01*
X187970390Y-105767000D02*
X187922771Y-105719381D01*
X187922771Y-105719381D02*
X187875152Y-105624143D01*
X187875152Y-105624143D02*
X187875152Y-105528905D01*
X187875152Y-105338428D02*
X187875152Y-104957476D01*
X188541819Y-105195571D02*
X187684676Y-105195571D01*
X187684676Y-105195571D02*
X187589438Y-105147952D01*
X187589438Y-105147952D02*
X187541819Y-105052714D01*
X187541819Y-105052714D02*
X187541819Y-104957476D01*
X188541819Y-104624142D02*
X187875152Y-104624142D01*
X188065628Y-104624142D02*
X187970390Y-104576523D01*
X187970390Y-104576523D02*
X187922771Y-104528904D01*
X187922771Y-104528904D02*
X187875152Y-104433666D01*
X187875152Y-104433666D02*
X187875152Y-104338428D01*
X188541819Y-103576523D02*
X188018009Y-103576523D01*
X188018009Y-103576523D02*
X187922771Y-103624142D01*
X187922771Y-103624142D02*
X187875152Y-103719380D01*
X187875152Y-103719380D02*
X187875152Y-103909856D01*
X187875152Y-103909856D02*
X187922771Y-104005094D01*
X188494200Y-103576523D02*
X188541819Y-103671761D01*
X188541819Y-103671761D02*
X188541819Y-103909856D01*
X188541819Y-103909856D02*
X188494200Y-104005094D01*
X188494200Y-104005094D02*
X188398961Y-104052713D01*
X188398961Y-104052713D02*
X188303723Y-104052713D01*
X188303723Y-104052713D02*
X188208485Y-104005094D01*
X188208485Y-104005094D02*
X188160866Y-103909856D01*
X188160866Y-103909856D02*
X188160866Y-103671761D01*
X188160866Y-103671761D02*
X188113247Y-103576523D01*
X188541819Y-103100332D02*
X187875152Y-103100332D01*
X187970390Y-103100332D02*
X187922771Y-103052713D01*
X187922771Y-103052713D02*
X187875152Y-102957475D01*
X187875152Y-102957475D02*
X187875152Y-102814618D01*
X187875152Y-102814618D02*
X187922771Y-102719380D01*
X187922771Y-102719380D02*
X188018009Y-102671761D01*
X188018009Y-102671761D02*
X188541819Y-102671761D01*
X188018009Y-102671761D02*
X187922771Y-102624142D01*
X187922771Y-102624142D02*
X187875152Y-102528904D01*
X187875152Y-102528904D02*
X187875152Y-102386047D01*
X187875152Y-102386047D02*
X187922771Y-102290808D01*
X187922771Y-102290808D02*
X188018009Y-102243189D01*
X188018009Y-102243189D02*
X188541819Y-102243189D01*
X188494200Y-101386047D02*
X188541819Y-101481285D01*
X188541819Y-101481285D02*
X188541819Y-101671761D01*
X188541819Y-101671761D02*
X188494200Y-101766999D01*
X188494200Y-101766999D02*
X188398961Y-101814618D01*
X188398961Y-101814618D02*
X188018009Y-101814618D01*
X188018009Y-101814618D02*
X187922771Y-101766999D01*
X187922771Y-101766999D02*
X187875152Y-101671761D01*
X187875152Y-101671761D02*
X187875152Y-101481285D01*
X187875152Y-101481285D02*
X187922771Y-101386047D01*
X187922771Y-101386047D02*
X188018009Y-101338428D01*
X188018009Y-101338428D02*
X188113247Y-101338428D01*
X188113247Y-101338428D02*
X188208485Y-101814618D01*
X197967695Y-131086819D02*
X197967695Y-130086819D01*
X197967695Y-130563009D02*
X198539123Y-130563009D01*
X198539123Y-131086819D02*
X198539123Y-130086819D01*
X199443885Y-130420152D02*
X199443885Y-131086819D01*
X199205790Y-130039200D02*
X198967695Y-130753485D01*
X198967695Y-130753485D02*
X199586742Y-130753485D01*
X103806666Y-74638819D02*
X103806666Y-75353104D01*
X103806666Y-75353104D02*
X103759047Y-75495961D01*
X103759047Y-75495961D02*
X103663809Y-75591200D01*
X103663809Y-75591200D02*
X103520952Y-75638819D01*
X103520952Y-75638819D02*
X103425714Y-75638819D01*
X104806666Y-75638819D02*
X104235238Y-75638819D01*
X104520952Y-75638819D02*
X104520952Y-74638819D01*
X104520952Y-74638819D02*
X104425714Y-74781676D01*
X104425714Y-74781676D02*
X104330476Y-74876914D01*
X104330476Y-74876914D02*
X104235238Y-74924533D01*
X110952578Y-106535571D02*
X110904959Y-106630809D01*
X110904959Y-106630809D02*
X110904959Y-106773666D01*
X110904959Y-106773666D02*
X110952578Y-106916523D01*
X110952578Y-106916523D02*
X111047816Y-107011761D01*
X111047816Y-107011761D02*
X111143054Y-107059380D01*
X111143054Y-107059380D02*
X111333530Y-107106999D01*
X111333530Y-107106999D02*
X111476387Y-107106999D01*
X111476387Y-107106999D02*
X111666863Y-107059380D01*
X111666863Y-107059380D02*
X111762101Y-107011761D01*
X111762101Y-107011761D02*
X111857340Y-106916523D01*
X111857340Y-106916523D02*
X111904959Y-106773666D01*
X111904959Y-106773666D02*
X111904959Y-106678428D01*
X111904959Y-106678428D02*
X111857340Y-106535571D01*
X111857340Y-106535571D02*
X111809720Y-106487952D01*
X111809720Y-106487952D02*
X111476387Y-106487952D01*
X111476387Y-106487952D02*
X111476387Y-106678428D01*
X111904959Y-106059380D02*
X110904959Y-106059380D01*
X110904959Y-106059380D02*
X110904959Y-105678428D01*
X110904959Y-105678428D02*
X110952578Y-105583190D01*
X110952578Y-105583190D02*
X111000197Y-105535571D01*
X111000197Y-105535571D02*
X111095435Y-105487952D01*
X111095435Y-105487952D02*
X111238292Y-105487952D01*
X111238292Y-105487952D02*
X111333530Y-105535571D01*
X111333530Y-105535571D02*
X111381149Y-105583190D01*
X111381149Y-105583190D02*
X111428768Y-105678428D01*
X111428768Y-105678428D02*
X111428768Y-106059380D01*
X111857340Y-105106999D02*
X111904959Y-104964142D01*
X111904959Y-104964142D02*
X111904959Y-104726047D01*
X111904959Y-104726047D02*
X111857340Y-104630809D01*
X111857340Y-104630809D02*
X111809720Y-104583190D01*
X111809720Y-104583190D02*
X111714482Y-104535571D01*
X111714482Y-104535571D02*
X111619244Y-104535571D01*
X111619244Y-104535571D02*
X111524006Y-104583190D01*
X111524006Y-104583190D02*
X111476387Y-104630809D01*
X111476387Y-104630809D02*
X111428768Y-104726047D01*
X111428768Y-104726047D02*
X111381149Y-104916523D01*
X111381149Y-104916523D02*
X111333530Y-105011761D01*
X111333530Y-105011761D02*
X111285911Y-105059380D01*
X111285911Y-105059380D02*
X111190673Y-105106999D01*
X111190673Y-105106999D02*
X111095435Y-105106999D01*
X111095435Y-105106999D02*
X111000197Y-105059380D01*
X111000197Y-105059380D02*
X110952578Y-105011761D01*
X110952578Y-105011761D02*
X110904959Y-104916523D01*
X110904959Y-104916523D02*
X110904959Y-104678428D01*
X110904959Y-104678428D02*
X110952578Y-104535571D01*
X110857340Y-103392714D02*
X112143054Y-104249856D01*
X111619244Y-103106999D02*
X111619244Y-102630809D01*
X111904959Y-103202237D02*
X110904959Y-102868904D01*
X110904959Y-102868904D02*
X111904959Y-102535571D01*
X111904959Y-101630809D02*
X111428768Y-101964142D01*
X111904959Y-102202237D02*
X110904959Y-102202237D01*
X110904959Y-102202237D02*
X110904959Y-101821285D01*
X110904959Y-101821285D02*
X110952578Y-101726047D01*
X110952578Y-101726047D02*
X111000197Y-101678428D01*
X111000197Y-101678428D02*
X111095435Y-101630809D01*
X111095435Y-101630809D02*
X111238292Y-101630809D01*
X111238292Y-101630809D02*
X111333530Y-101678428D01*
X111333530Y-101678428D02*
X111381149Y-101726047D01*
X111381149Y-101726047D02*
X111428768Y-101821285D01*
X111428768Y-101821285D02*
X111428768Y-102202237D01*
X111904959Y-101202237D02*
X110904959Y-101202237D01*
X111904959Y-100726047D02*
X110904959Y-100726047D01*
X110904959Y-100726047D02*
X111904959Y-100154619D01*
X111904959Y-100154619D02*
X110904959Y-100154619D01*
X111809720Y-99107000D02*
X111857340Y-99154619D01*
X111857340Y-99154619D02*
X111904959Y-99297476D01*
X111904959Y-99297476D02*
X111904959Y-99392714D01*
X111904959Y-99392714D02*
X111857340Y-99535571D01*
X111857340Y-99535571D02*
X111762101Y-99630809D01*
X111762101Y-99630809D02*
X111666863Y-99678428D01*
X111666863Y-99678428D02*
X111476387Y-99726047D01*
X111476387Y-99726047D02*
X111333530Y-99726047D01*
X111333530Y-99726047D02*
X111143054Y-99678428D01*
X111143054Y-99678428D02*
X111047816Y-99630809D01*
X111047816Y-99630809D02*
X110952578Y-99535571D01*
X110952578Y-99535571D02*
X110904959Y-99392714D01*
X110904959Y-99392714D02*
X110904959Y-99297476D01*
X110904959Y-99297476D02*
X110952578Y-99154619D01*
X110952578Y-99154619D02*
X111000197Y-99107000D01*
D12*
%TO.C,J8*%
X181227000Y-63457000D02*
X181227000Y-73957000D01*
X180167000Y-75017000D02*
X142967000Y-75017000D01*
X172754733Y-66068744D02*
X173583470Y-70768744D01*
X171948689Y-72717000D02*
X151185311Y-72717000D01*
X152122000Y-75911338D02*
X151622000Y-75911338D01*
X152014048Y-64697000D02*
X171119952Y-64697000D01*
X151872000Y-75478325D02*
X152122000Y-75911338D01*
X151622000Y-75911338D02*
X151872000Y-75478325D01*
X149550530Y-70768744D02*
X150379267Y-66068744D01*
X142967000Y-62397000D02*
X180167000Y-62397000D01*
X141907000Y-73957000D02*
X141907000Y-63457000D01*
X181227000Y-73957000D02*
G75*
G02*
X180167000Y-75017000I-1060001J1D01*
G01*
X180167000Y-62397000D02*
G75*
G02*
X181227000Y-63457000I-1J-1060001D01*
G01*
X173583470Y-70768744D02*
G75*
G02*
X171948689Y-72717000I-1634780J-288257D01*
G01*
X171119952Y-64697000D02*
G75*
G02*
X172754733Y-66068744I1J-1659999D01*
G01*
X151185311Y-72717000D02*
G75*
G02*
X149550529Y-70768744I-1J1660000D01*
G01*
X150379267Y-66068744D02*
G75*
G02*
X152014048Y-64697000I1634780J-288255D01*
G01*
X142967000Y-75017000D02*
G75*
G02*
X141907000Y-73957000I0J1060000D01*
G01*
X141907000Y-63457000D02*
G75*
G02*
X142967000Y-62397000I1060000J0D01*
G01*
%TO.C,R3*%
X188780436Y-138028000D02*
X190234564Y-138028000D01*
X188780436Y-139848000D02*
X190234564Y-139848000D01*
%TO.C,R4*%
X188780436Y-140441000D02*
X190234564Y-140441000D01*
X188780436Y-142261000D02*
X190234564Y-142261000D01*
%TO.C,R1*%
X188780436Y-133202000D02*
X190234564Y-133202000D01*
X188780436Y-135022000D02*
X190234564Y-135022000D01*
%TO.C,R5*%
X188781736Y-142828600D02*
X190235864Y-142828600D01*
X188781736Y-144648600D02*
X190235864Y-144648600D01*
%TO.C,R2*%
X188780436Y-135615000D02*
X190234564Y-135615000D01*
X188780436Y-137435000D02*
X190234564Y-137435000D01*
D13*
%TO.C,F1*%
X119190800Y-66632200D02*
X119190800Y-82632200D01*
X112460800Y-66632200D02*
X119190800Y-66632200D01*
X119190800Y-82632200D02*
X112460800Y-82632200D01*
X112460800Y-82632200D02*
X112460800Y-66632200D01*
D12*
%TO.C,R6*%
X115342936Y-103786000D02*
X115797064Y-103786000D01*
X115342936Y-105256000D02*
X115797064Y-105256000D01*
%TO.C,J9*%
X113811000Y-143830000D02*
X113811000Y-133330000D01*
X114871000Y-132270000D02*
X182271000Y-132270000D01*
X121454530Y-140641744D02*
X122283267Y-135941744D01*
X123391000Y-145784338D02*
X123641000Y-145351325D01*
X123641000Y-145351325D02*
X123891000Y-145784338D01*
X123891000Y-145784338D02*
X123391000Y-145784338D01*
X123918048Y-134570000D02*
X173223952Y-134570000D01*
X174052689Y-142590000D02*
X123089311Y-142590000D01*
X174858733Y-135941744D02*
X175687470Y-140641744D01*
X182271000Y-144890000D02*
X114871000Y-144890000D01*
X183331000Y-133330000D02*
X183331000Y-143830000D01*
X113811000Y-133330000D02*
G75*
G02*
X114871000Y-132270000I1060000J0D01*
G01*
X114871000Y-144890000D02*
G75*
G02*
X113811000Y-143830000I0J1060000D01*
G01*
X122283267Y-135941744D02*
G75*
G02*
X123918048Y-134570000I1634780J-288255D01*
G01*
X123089311Y-142590000D02*
G75*
G02*
X121454529Y-140641744I-1J1660000D01*
G01*
X173223952Y-134570000D02*
G75*
G02*
X174858733Y-135941744I1J-1659999D01*
G01*
X175687470Y-140641744D02*
G75*
G02*
X174052689Y-142590000I-1634781J-288256D01*
G01*
X182271000Y-132270000D02*
G75*
G02*
X183331000Y-133330000I-1J-1060001D01*
G01*
X183331000Y-143830000D02*
G75*
G02*
X182271000Y-144890000I-1060001J1D01*
G01*
%TO.C,J6*%
D10*
X107149900Y-70891400D02*
X110324900Y-70891400D01*
X110324900Y-62966600D01*
X107149900Y-62966600D01*
X107149900Y-70891400D01*
D12*
%TO.C,R7*%
X137821936Y-103786000D02*
X138276064Y-103786000D01*
X137821936Y-105256000D02*
X138276064Y-105256000D01*
%TO.C,J3*%
X142655662Y-86237000D02*
X143088675Y-86487000D01*
X142655662Y-86737000D02*
X142655662Y-86237000D01*
X143088675Y-86487000D02*
X142655662Y-86737000D01*
X143550000Y-128657000D02*
X143550000Y-77557000D01*
X144610000Y-76497000D02*
X155110000Y-76497000D01*
X145850000Y-120338689D02*
X145850000Y-85875311D01*
X147798256Y-84240530D02*
X152498256Y-85069267D01*
X152498256Y-121144733D02*
X147798256Y-121973470D01*
X153870000Y-86704048D02*
X153870000Y-119509952D01*
X155110000Y-129717000D02*
X144610000Y-129717000D01*
X156170000Y-77557000D02*
X156170000Y-128657000D01*
X143550000Y-77557000D02*
G75*
G02*
X144610000Y-76497000I1060000J0D01*
G01*
X144610000Y-129717000D02*
G75*
G02*
X143550000Y-128657000I1J1060001D01*
G01*
X145850000Y-85875311D02*
G75*
G02*
X147798256Y-84240529I1660000J1D01*
G01*
X147798256Y-121973470D02*
G75*
G02*
X145850000Y-120338689I-288256J1634781D01*
G01*
X152498256Y-85069267D02*
G75*
G02*
X153870000Y-86704048I-288255J-1634780D01*
G01*
X153870000Y-119509952D02*
G75*
G02*
X152498256Y-121144733I-1659999J-1D01*
G01*
X155110000Y-76497000D02*
G75*
G02*
X156170000Y-77557000I0J-1060000D01*
G01*
X156170000Y-128657000D02*
G75*
G02*
X155110000Y-129717000I-1060001J1D01*
G01*
%TO.C,R8*%
X160935936Y-103786000D02*
X161390064Y-103786000D01*
X160935936Y-105256000D02*
X161390064Y-105256000D01*
%TO.C,J7*%
D10*
X121704100Y-70891400D02*
X124879100Y-70891400D01*
X124879100Y-62966600D01*
X121704100Y-62966600D01*
X121704100Y-70891400D01*
D12*
%TO.C,J4*%
X165515662Y-86237000D02*
X165948675Y-86487000D01*
X165515662Y-86737000D02*
X165515662Y-86237000D01*
X165948675Y-86487000D02*
X165515662Y-86737000D01*
X166410000Y-128657000D02*
X166410000Y-77557000D01*
X167470000Y-76497000D02*
X177970000Y-76497000D01*
X168710000Y-120338689D02*
X168710000Y-85875311D01*
X170658256Y-84240530D02*
X175358256Y-85069267D01*
X175358256Y-121144733D02*
X170658256Y-121973470D01*
X176730000Y-86704048D02*
X176730000Y-119509952D01*
X177970000Y-129717000D02*
X167470000Y-129717000D01*
X179030000Y-77557000D02*
X179030000Y-128657000D01*
X166410000Y-77557000D02*
G75*
G02*
X167470000Y-76497000I1060000J0D01*
G01*
X167470000Y-129717000D02*
G75*
G02*
X166410000Y-128657000I1J1060001D01*
G01*
X168710000Y-85875311D02*
G75*
G02*
X170658256Y-84240529I1660000J1D01*
G01*
X170658256Y-121973470D02*
G75*
G02*
X168710000Y-120338689I-288256J1634781D01*
G01*
X175358256Y-85069267D02*
G75*
G02*
X176730000Y-86704048I-288255J-1634780D01*
G01*
X176730000Y-119509952D02*
G75*
G02*
X175358256Y-121144733I-1659999J-1D01*
G01*
X177970000Y-76497000D02*
G75*
G02*
X179030000Y-77557000I0J-1060000D01*
G01*
X179030000Y-128657000D02*
G75*
G02*
X177970000Y-129717000I-1060001J1D01*
G01*
%TO.C,J2*%
X119795662Y-86237000D02*
X120228675Y-86487000D01*
X119795662Y-86737000D02*
X119795662Y-86237000D01*
X120228675Y-86487000D02*
X119795662Y-86737000D01*
X120690000Y-128657000D02*
X120690000Y-77557000D01*
X121750000Y-76497000D02*
X132250000Y-76497000D01*
X122990000Y-120338689D02*
X122990000Y-85875311D01*
X124938256Y-84240530D02*
X129638256Y-85069267D01*
X129638256Y-121144733D02*
X124938256Y-121973470D01*
X131010000Y-86704048D02*
X131010000Y-119509952D01*
X132250000Y-129717000D02*
X121750000Y-129717000D01*
X133310000Y-77557000D02*
X133310000Y-128657000D01*
X120690000Y-77557000D02*
G75*
G02*
X121750000Y-76497000I1060000J0D01*
G01*
X121750000Y-129717000D02*
G75*
G02*
X120690000Y-128657000I1J1060001D01*
G01*
X122990000Y-85875311D02*
G75*
G02*
X124938256Y-84240529I1660000J1D01*
G01*
X124938256Y-121973470D02*
G75*
G02*
X122990000Y-120338689I-288256J1634781D01*
G01*
X129638256Y-85069267D02*
G75*
G02*
X131010000Y-86704048I-288255J-1634780D01*
G01*
X131010000Y-119509952D02*
G75*
G02*
X129638256Y-121144733I-1659999J-1D01*
G01*
X132250000Y-76497000D02*
G75*
G02*
X133310000Y-77557000I0J-1060000D01*
G01*
X133310000Y-128657000D02*
G75*
G02*
X132250000Y-129717000I-1060001J1D01*
G01*
%TO.C,J5*%
X188375662Y-86237000D02*
X188808675Y-86487000D01*
X188375662Y-86737000D02*
X188375662Y-86237000D01*
X188808675Y-86487000D02*
X188375662Y-86737000D01*
X189270000Y-128657000D02*
X189270000Y-77557000D01*
X190330000Y-76497000D02*
X200830000Y-76497000D01*
X191570000Y-120338689D02*
X191570000Y-85875311D01*
X193518256Y-84240530D02*
X198218256Y-85069267D01*
X198218256Y-121144733D02*
X193518256Y-121973470D01*
X199590000Y-86704048D02*
X199590000Y-119509952D01*
X200830000Y-129717000D02*
X190330000Y-129717000D01*
X201890000Y-77557000D02*
X201890000Y-128657000D01*
X189270000Y-77557000D02*
G75*
G02*
X190330000Y-76497000I1060000J0D01*
G01*
X190330000Y-129717000D02*
G75*
G02*
X189270000Y-128657000I1J1060001D01*
G01*
X191570000Y-85875311D02*
G75*
G02*
X193518256Y-84240529I1660000J1D01*
G01*
X193518256Y-121973470D02*
G75*
G02*
X191570000Y-120338689I-288256J1634781D01*
G01*
X198218256Y-85069267D02*
G75*
G02*
X199590000Y-86704048I-288255J-1634780D01*
G01*
X199590000Y-119509952D02*
G75*
G02*
X198218256Y-121144733I-1659999J-1D01*
G01*
X200830000Y-76497000D02*
G75*
G02*
X201890000Y-77557000I0J-1060000D01*
G01*
X201890000Y-128657000D02*
G75*
G02*
X200830000Y-129717000I-1060001J1D01*
G01*
%TO.C,J1*%
X96935802Y-86237000D02*
X97368815Y-86487000D01*
X96935802Y-86737000D02*
X96935802Y-86237000D01*
X97368815Y-86487000D02*
X96935802Y-86737000D01*
X97830140Y-128657000D02*
X97830140Y-77557000D01*
X98890140Y-76497000D02*
X109390140Y-76497000D01*
X100130140Y-120338689D02*
X100130140Y-85875311D01*
X102078396Y-84240530D02*
X106778396Y-85069267D01*
X106778396Y-121144733D02*
X102078396Y-121973470D01*
X108150140Y-86704048D02*
X108150140Y-119509952D01*
X109390140Y-129717000D02*
X98890140Y-129717000D01*
X110450140Y-77557000D02*
X110450140Y-128657000D01*
X97830140Y-77557000D02*
G75*
G02*
X98890140Y-76497000I1060000J0D01*
G01*
X98890140Y-129717000D02*
G75*
G02*
X97830140Y-128657000I1J1060001D01*
G01*
X100130140Y-85875311D02*
G75*
G02*
X102078396Y-84240529I1660000J1D01*
G01*
X102078396Y-121973470D02*
G75*
G02*
X100130140Y-120338689I-288256J1634781D01*
G01*
X106778396Y-85069267D02*
G75*
G02*
X108150140Y-86704048I-288255J-1634780D01*
G01*
X108150140Y-119509952D02*
G75*
G02*
X106778396Y-121144733I-1659999J-1D01*
G01*
X109390140Y-76497000D02*
G75*
G02*
X110450140Y-77557000I0J-1060000D01*
G01*
X110450140Y-128657000D02*
G75*
G02*
X109390140Y-129717000I-1060001J1D01*
G01*
%TD*%
M02*
