%TF.GenerationSoftware,KiCad,Pcbnew,9.0.6*%
%TF.CreationDate,2025-11-24T17:06:30-07:00*%
%TF.ProjectId,CentralAvionicsHub,43656e74-7261-46c4-9176-696f6e696373,Rev 0*%
%TF.SameCoordinates,Original*%
%TF.FileFunction,Soldermask,Bot*%
%TF.FilePolarity,Negative*%
%FSLAX46Y46*%
G04 Gerber Fmt 4.6, Leading zero omitted, Abs format (unit mm)*
G04 Created by KiCad (PCBNEW 9.0.6) date 2025-11-24 17:06:30*
%MOMM*%
%LPD*%
G01*
G04 APERTURE LIST*
%ADD10C,4.000000*%
%ADD11R,1.600000X1.600000*%
%ADD12C,1.600000*%
%ADD13C,2.604000*%
%ADD14C,2.540000*%
%ADD15C,4.300000*%
G04 APERTURE END LIST*
D10*
%TO.C,J8*%
X178227000Y-68707000D03*
X144907000Y-68707000D03*
D11*
X151967000Y-70127000D03*
D12*
X154707000Y-70127000D03*
X157457000Y-70127000D03*
X160197000Y-70127000D03*
X162937000Y-70127000D03*
X165677000Y-70127000D03*
X168427000Y-70127000D03*
X171167000Y-70127000D03*
X153337000Y-67287000D03*
X156077000Y-67287000D03*
X158827000Y-67287000D03*
X161567000Y-67287000D03*
X164307000Y-67287000D03*
X167057000Y-67287000D03*
X169797000Y-67287000D03*
%TD*%
D13*
%TO.C,F1*%
X117525800Y-69672200D03*
X114125800Y-69672200D03*
X117525800Y-79592200D03*
X114125800Y-79592200D03*
%TD*%
D10*
%TO.C,J9*%
X180321000Y-138580000D03*
X116821000Y-138580000D03*
D11*
X123641000Y-140000000D03*
D12*
X126411000Y-140000000D03*
X129181000Y-140000000D03*
X131951000Y-140000000D03*
X134721000Y-140000000D03*
X137491000Y-140000000D03*
X140261000Y-140000000D03*
X143031000Y-140000000D03*
X145801000Y-140000000D03*
X148571000Y-140000000D03*
X151341000Y-140000000D03*
X154111000Y-140000000D03*
X156881000Y-140000000D03*
X159651000Y-140000000D03*
X162421000Y-140000000D03*
X165191000Y-140000000D03*
X167961000Y-140000000D03*
X170731000Y-140000000D03*
X173501000Y-140000000D03*
X125026000Y-137160000D03*
X127796000Y-137160000D03*
X130566000Y-137160000D03*
X133336000Y-137160000D03*
X136106000Y-137160000D03*
X138876000Y-137160000D03*
X141646000Y-137160000D03*
X144416000Y-137160000D03*
X147186000Y-137160000D03*
X149956000Y-137160000D03*
X152726000Y-137160000D03*
X155496000Y-137160000D03*
X158266000Y-137160000D03*
X161036000Y-137160000D03*
X163806000Y-137160000D03*
X166576000Y-137160000D03*
X169346000Y-137160000D03*
X172116000Y-137160000D03*
%TD*%
D14*
%TO.C,J6*%
X108737400Y-69469000D03*
X108737400Y-64389000D03*
%TD*%
D15*
%TO.C,H1*%
X100939600Y-68072000D03*
%TD*%
D10*
%TO.C,J3*%
X149860000Y-126657000D03*
X149860000Y-79557000D03*
D11*
X148440000Y-86487000D03*
D12*
X148440000Y-89257000D03*
X148440000Y-92027000D03*
X148440000Y-94797000D03*
X148440000Y-97567000D03*
X148440000Y-100337000D03*
X148440000Y-103107000D03*
X148440000Y-105877000D03*
X148440000Y-108647000D03*
X148440000Y-111417000D03*
X148440000Y-114187000D03*
X148440000Y-116957000D03*
X148440000Y-119727000D03*
X151280000Y-87872000D03*
X151280000Y-90642000D03*
X151280000Y-93412000D03*
X151280000Y-96182000D03*
X151280000Y-98952000D03*
X151280000Y-101722000D03*
X151280000Y-104492000D03*
X151280000Y-107262000D03*
X151280000Y-110032000D03*
X151280000Y-112802000D03*
X151280000Y-115572000D03*
X151280000Y-118342000D03*
%TD*%
D15*
%TO.C,H2*%
X198729600Y-68072000D03*
%TD*%
D14*
%TO.C,J7*%
X123291600Y-69469000D03*
X123291600Y-64389000D03*
%TD*%
D15*
%TO.C,H3*%
X100939600Y-135382000D03*
%TD*%
D10*
%TO.C,J4*%
X172720000Y-126657000D03*
X172720000Y-79557000D03*
D11*
X171300000Y-86487000D03*
D12*
X171300000Y-89257000D03*
X171300000Y-92027000D03*
X171300000Y-94797000D03*
X171300000Y-97567000D03*
X171300000Y-100337000D03*
X171300000Y-103107000D03*
X171300000Y-105877000D03*
X171300000Y-108647000D03*
X171300000Y-111417000D03*
X171300000Y-114187000D03*
X171300000Y-116957000D03*
X171300000Y-119727000D03*
X174140000Y-87872000D03*
X174140000Y-90642000D03*
X174140000Y-93412000D03*
X174140000Y-96182000D03*
X174140000Y-98952000D03*
X174140000Y-101722000D03*
X174140000Y-104492000D03*
X174140000Y-107262000D03*
X174140000Y-110032000D03*
X174140000Y-112802000D03*
X174140000Y-115572000D03*
X174140000Y-118342000D03*
%TD*%
D10*
%TO.C,J2*%
X127000000Y-126657000D03*
X127000000Y-79557000D03*
D11*
X125580000Y-86487000D03*
D12*
X125580000Y-89257000D03*
X125580000Y-92027000D03*
X125580000Y-94797000D03*
X125580000Y-97567000D03*
X125580000Y-100337000D03*
X125580000Y-103107000D03*
X125580000Y-105877000D03*
X125580000Y-108647000D03*
X125580000Y-111417000D03*
X125580000Y-114187000D03*
X125580000Y-116957000D03*
X125580000Y-119727000D03*
X128420000Y-87872000D03*
X128420000Y-90642000D03*
X128420000Y-93412000D03*
X128420000Y-96182000D03*
X128420000Y-98952000D03*
X128420000Y-101722000D03*
X128420000Y-104492000D03*
X128420000Y-107262000D03*
X128420000Y-110032000D03*
X128420000Y-112802000D03*
X128420000Y-115572000D03*
X128420000Y-118342000D03*
%TD*%
D10*
%TO.C,J5*%
X195580000Y-126657000D03*
X195580000Y-79557000D03*
D11*
X194160000Y-86487000D03*
D12*
X194160000Y-89257000D03*
X194160000Y-92027000D03*
X194160000Y-94797000D03*
X194160000Y-97567000D03*
X194160000Y-100337000D03*
X194160000Y-103107000D03*
X194160000Y-105877000D03*
X194160000Y-108647000D03*
X194160000Y-111417000D03*
X194160000Y-114187000D03*
X194160000Y-116957000D03*
X194160000Y-119727000D03*
X197000000Y-87872000D03*
X197000000Y-90642000D03*
X197000000Y-93412000D03*
X197000000Y-96182000D03*
X197000000Y-98952000D03*
X197000000Y-101722000D03*
X197000000Y-104492000D03*
X197000000Y-107262000D03*
X197000000Y-110032000D03*
X197000000Y-112802000D03*
X197000000Y-115572000D03*
X197000000Y-118342000D03*
%TD*%
D15*
%TO.C,H4*%
X198729600Y-135382000D03*
%TD*%
D10*
%TO.C,J1*%
X104140140Y-126657000D03*
X104140140Y-79557000D03*
D11*
X102720140Y-86487000D03*
D12*
X102720140Y-89257000D03*
X102720140Y-92027000D03*
X102720140Y-94797000D03*
X102720140Y-97567000D03*
X102720140Y-100337000D03*
X102720140Y-103107000D03*
X102720140Y-105877000D03*
X102720140Y-108647000D03*
X102720140Y-111417000D03*
X102720140Y-114187000D03*
X102720140Y-116957000D03*
X102720140Y-119727000D03*
X105560140Y-87872000D03*
X105560140Y-90642000D03*
X105560140Y-93412000D03*
X105560140Y-96182000D03*
X105560140Y-98952000D03*
X105560140Y-101722000D03*
X105560140Y-104492000D03*
X105560140Y-107262000D03*
X105560140Y-110032000D03*
X105560140Y-112802000D03*
X105560140Y-115572000D03*
X105560140Y-118342000D03*
%TD*%
M02*
