M48
; DRILL file {KiCad 9.0.6} date 2025-11-23T21:23:26-0700
; FORMAT={-:-/ absolute / metric / decimal}
; #@! TF.CreationDate,2025-11-23T21:23:26-07:00
; #@! TF.GenerationSoftware,Kicad,Pcbnew,9.0.6
; #@! TF.FileFunction,Plated,1,2,PTH
FMAT,2
METRIC
; #@! TA.AperFunction,Plated,PTH,ViaDrill
T1C0.300
; #@! TA.AperFunction,Plated,PTH,ViaDrill
T2C0.700
; #@! TA.AperFunction,Plated,PTH,ComponentDrill
T3C1.000
; #@! TA.AperFunction,Plated,PTH,ComponentDrill
T4C1.397
; #@! TA.AperFunction,Plated,PTH,ViaDrill
T5C2.500
; #@! TA.AperFunction,Plated,PTH,ComponentDrill
T6C3.200
%
G90
G05
T1
X98.933Y-72.136
X99.187Y-142.367
X99.314Y-95.25
X99.314Y-107.061
X99.441Y-89.154
X99.441Y-116.205
X99.568Y-81.534
X99.695Y-123.317
X100.203Y-78.232
X101.346Y-74.803
X105.41Y-138.811
X105.537Y-69.342
X105.537Y-73.025
X106.553Y-63.373
X107.569Y-122.936
X108.966Y-94.615
X108.966Y-97.155
X109.22Y-127.381
X109.22Y-133.477
X109.982Y-100.965
X110.998Y-73.914
X111.379Y-117.475
X111.887Y-108.331
X111.887Y-144.272
X112.014Y-86.106
X112.585Y-140.906
X112.776Y-96.52
X112.776Y-110.49
X113.792Y-119.634
X114.046Y-133.731
X114.3Y-126.619
X114.681Y-100.33
X115.57Y-83.185
X116.332Y-109.855
X116.459Y-94.742
X116.586Y-87.884
X117.094Y-122.555
X117.221Y-130.048
X117.348Y-135.001
X117.602Y-63.754
X117.856Y-92.964
X118.11Y-81.407
X118.237Y-98.933
X118.364Y-70.485
X118.872Y-105.41
X119.38Y-109.474
X119.776Y-111.76
X120.523Y-142.494
X121.412Y-92.71
X122.555Y-82.423
X123.444Y-97.79
X123.825Y-143.891
X124.206Y-122.301
X124.46Y-132.334
X124.587Y-123.825
X125.73Y-130.683
X127.635Y-133.477
X129.159Y-70.231
X129.286Y-135.382
X129.413Y-130.937
X130.302Y-121.92
X130.556Y-109.347
X130.556Y-123.698
X130.556Y-124.714
X130.683Y-62.611
X130.683Y-95.758
X131.191Y-114.427
X132.207Y-94.742
X132.461Y-96.647
X133.223Y-86.741
X133.35Y-138.938
X134.239Y-65.405
X135.136Y-94.749
X135.382Y-78.359
X135.382Y-123.952
X136.017Y-108.839
X136.271Y-113.157
X136.779Y-63.5
X137.16Y-87.376
X137.287Y-85.598
X137.414Y-74.549
X137.541Y-115.697
X137.668Y-109.728
X138.303Y-121.158
X139.954Y-143.891
X140.843Y-73.025
X142.875Y-105.156
X142.875Y-110.871
X143.129Y-84.455
X143.383Y-114.173
X144.399Y-108.966
X144.399Y-115.824
X144.907Y-111.506
X145.034Y-86.741
X145.415Y-100.33
X145.796Y-116.957
X146.431Y-94.361
X146.558Y-110.236
X147.193Y-118.364
X147.32Y-66.675
X149.225Y-134.112
X149.86Y-131.064
X150.241Y-100.33
X150.495Y-144.018
X151.511Y-83.693
X152.527Y-91.948
X153.543Y-96.139
X153.67Y-74.549
X154.051Y-78.74
X154.051Y-82.931
X154.178Y-128.016
X154.178Y-131.064
X154.432Y-134.239
X154.686Y-115.824
X154.686Y-119.126
X155.067Y-125.73
X155.321Y-88.011
X156.881Y-114.935
X157.353Y-87.249
X157.734Y-90.043
X158.242Y-116.967
X159.131Y-89.027
X160.655Y-146.939
X160.909Y-111.252
X162.687Y-120.396
X164.338Y-62.738
X164.338Y-143.51
X164.973Y-120.904
X165.354Y-122.428
X165.481Y-63.5
X166.751Y-62.611
X167.64Y-124.46
X167.957Y-112.078
X168.656Y-76.327
X168.656Y-100.33
X168.91Y-98.933
X169.037Y-127.381
X169.164Y-113.284
X169.291Y-92.456
X169.291Y-109.982
X169.291Y-131.826
X169.418Y-78.359
X169.545Y-114.681
X170.815Y-62.103
X172.212Y-146.939
X172.593Y-110.49
X174.244Y-130.937
X174.752Y-92.075
X175.514Y-62.103
X175.641Y-119.634
X176.108Y-105.877
X176.149Y-78.74
X176.149Y-98.425
X176.657Y-112.268
X176.784Y-100.33
X176.911Y-124.333
X177.165Y-127.0
X177.292Y-80.518
X177.292Y-103.378
X177.419Y-114.173
X177.673Y-111.506
X177.927Y-118.745
X177.927Y-132.842
X178.435Y-115.443
X178.625Y-105.093
X181.737Y-62.23
X181.864Y-87.503
X184.15Y-118.237
X184.531Y-111.379
X184.658Y-90.932
X184.785Y-114.173
X185.928Y-137.541
X186.563Y-124.333
X186.944Y-127.254
X187.452Y-92.583
X187.452Y-111.887
X187.706Y-72.644
X188.595Y-64.643
X189.738Y-74.93
X190.5Y-118.999
X190.881Y-123.698
X191.643Y-63.246
X192.405Y-68.453
X193.167Y-65.532
X193.675Y-146.685
X196.088Y-63.119
X196.723Y-139.827
X197.612Y-122.809
X199.771Y-142.621
X200.152Y-127.254
X200.533Y-102.87
X200.66Y-96.647
X200.66Y-116.84
X200.787Y-72.644
T2
X170.688Y-134.112
X170.688Y-137.922
X172.116Y-143.129
X177.546Y-141.605
X178.816Y-145.415
T3
X102.72Y-86.487
X102.72Y-89.257
X102.72Y-92.027
X102.72Y-94.797
X102.72Y-97.567
X102.72Y-100.337
X102.72Y-103.107
X102.72Y-105.877
X102.72Y-108.647
X102.72Y-111.417
X102.72Y-114.187
X102.72Y-116.957
X102.72Y-119.727
X105.56Y-87.872
X105.56Y-90.642
X105.56Y-93.412
X105.56Y-96.182
X105.56Y-98.952
X105.56Y-101.722
X105.56Y-104.492
X105.56Y-107.262
X105.56Y-110.032
X105.56Y-112.802
X105.56Y-115.572
X105.56Y-118.342
X123.641Y-140.0
X125.026Y-137.16
X125.58Y-86.487
X125.58Y-89.257
X125.58Y-92.027
X125.58Y-94.797
X125.58Y-97.567
X125.58Y-100.337
X125.58Y-103.107
X125.58Y-105.877
X125.58Y-108.647
X125.58Y-111.417
X125.58Y-114.187
X125.58Y-116.957
X125.58Y-119.727
X126.411Y-140.0
X127.796Y-137.16
X128.42Y-87.872
X128.42Y-90.642
X128.42Y-93.412
X128.42Y-96.182
X128.42Y-98.952
X128.42Y-101.722
X128.42Y-104.492
X128.42Y-107.262
X128.42Y-110.032
X128.42Y-112.802
X128.42Y-115.572
X128.42Y-118.342
X129.181Y-140.0
X130.566Y-137.16
X131.951Y-140.0
X133.336Y-137.16
X134.721Y-140.0
X136.106Y-137.16
X137.491Y-140.0
X138.876Y-137.16
X140.261Y-140.0
X141.646Y-137.16
X143.031Y-140.0
X144.416Y-137.16
X145.801Y-140.0
X147.186Y-137.16
X148.44Y-86.487
X148.44Y-89.257
X148.44Y-92.027
X148.44Y-94.797
X148.44Y-97.567
X148.44Y-100.337
X148.44Y-103.107
X148.44Y-105.877
X148.44Y-108.647
X148.44Y-111.417
X148.44Y-114.187
X148.44Y-116.957
X148.44Y-119.727
X148.571Y-140.0
X149.956Y-137.16
X151.28Y-87.872
X151.28Y-90.642
X151.28Y-93.412
X151.28Y-96.182
X151.28Y-98.952
X151.28Y-101.722
X151.28Y-104.492
X151.28Y-107.262
X151.28Y-110.032
X151.28Y-112.802
X151.28Y-115.572
X151.28Y-118.342
X151.341Y-140.0
X151.862Y-70.127
X152.726Y-137.16
X153.247Y-67.287
X154.111Y-140.0
X154.632Y-70.127
X155.496Y-137.16
X156.017Y-67.287
X156.881Y-140.0
X157.402Y-70.127
X158.266Y-137.16
X158.787Y-67.287
X159.651Y-140.0
X160.172Y-70.127
X161.036Y-137.16
X161.557Y-67.287
X162.421Y-140.0
X162.942Y-70.127
X163.806Y-137.16
X164.327Y-67.287
X165.191Y-140.0
X165.712Y-70.127
X166.576Y-137.16
X167.097Y-67.287
X167.961Y-140.0
X168.482Y-70.127
X169.346Y-137.16
X169.867Y-67.287
X170.731Y-140.0
X171.252Y-70.127
X171.3Y-86.487
X171.3Y-89.257
X171.3Y-92.027
X171.3Y-94.797
X171.3Y-97.567
X171.3Y-100.337
X171.3Y-103.107
X171.3Y-105.877
X171.3Y-108.647
X171.3Y-111.417
X171.3Y-114.187
X171.3Y-116.957
X171.3Y-119.727
X172.116Y-137.16
X173.501Y-140.0
X174.14Y-87.872
X174.14Y-90.642
X174.14Y-93.412
X174.14Y-96.182
X174.14Y-98.952
X174.14Y-101.722
X174.14Y-104.492
X174.14Y-107.262
X174.14Y-110.032
X174.14Y-112.802
X174.14Y-115.572
X174.14Y-118.342
X194.16Y-86.487
X194.16Y-89.257
X194.16Y-92.027
X194.16Y-94.797
X194.16Y-97.567
X194.16Y-100.337
X194.16Y-103.107
X194.16Y-105.877
X194.16Y-108.647
X194.16Y-111.417
X194.16Y-114.187
X194.16Y-116.957
X194.16Y-119.727
X197.0Y-87.872
X197.0Y-90.642
X197.0Y-93.412
X197.0Y-96.182
X197.0Y-98.952
X197.0Y-101.722
X197.0Y-104.492
X197.0Y-107.262
X197.0Y-110.032
X197.0Y-112.802
X197.0Y-115.572
X197.0Y-118.342
T4
X109.601Y-66.167
X114.681Y-66.167
X121.539Y-66.167
X126.619Y-66.167
T5
X140.462Y-119.126
X181.483Y-130.175
T6
X104.14Y-79.557
X104.14Y-126.657
X116.821Y-138.58
X127.0Y-79.557
X127.0Y-126.657
X144.907Y-68.707
X149.86Y-79.557
X149.86Y-126.657
X172.72Y-79.557
X172.72Y-126.657
X178.207Y-68.707
X180.321Y-138.58
X195.58Y-79.557
X195.58Y-126.657
M30
